<svg id="Слой_3" data-name="Слой 3" xmlns="http://www.w3.org/2000/svg" viewBox="0 0 1269.37 276.33">
  <defs>
    <style>
      .cls-1 {
        fill: #fff;
      }
    </style>
  </defs>
  <g>
    <g>
      <path class="cls-1" d="M798.9,247.41l.15,19.54q49.53-7.41,204.39-10.59-216.08,1.29-232.89,71l58.59,37.2q30.24,4.83,66.48,24.37Q823,471.77,677.78,471.78q115-9.78,205.86-78-24.25-14.6-96.87-34.13L756.53,345Q766.9,292.85,798.9,247.41Z" transform="translate(-677.75 -247.41)"/>
      <path class="cls-1" d="M798.9,247.41l.17,19.54,0,0c8.44-1.26,16.93-2.15,25.43-2.95s17-1.42,25.51-2c17-1.15,34.07-2,51.12-2.75,34.1-1.46,68.22-2.4,102.34-3.12v.55c-21.38.17-42.76.8-64.08,2.21q-16,1.08-31.94,2.82c-10.62,1.2-21.2,2.67-31.73,4.51s-21,4.05-31.28,6.87a201.74,201.74,0,0,0-30.15,10.66,124.29,124.29,0,0,0-14.12,7.46,90.9,90.9,0,0,0-12.76,9.56,60,60,0,0,0-10.22,12.15A49.27,49.27,0,0,0,771,327.43l-.18-.43,58.61,37.17-.17-.07a176.47,176.47,0,0,1,34.32,9.45,276.45,276.45,0,0,1,32.32,14.94l.52.28-.39.45a219.15,219.15,0,0,1-45.48,39.26,244.2,244.2,0,0,1-54.15,26,316.35,316.35,0,0,1-58.56,13.64,446.11,446.11,0,0,1-60,4l0-.8A403.49,403.49,0,0,0,786.2,447.21a382.39,382.39,0,0,0,50.54-23.39,404.49,404.49,0,0,0,46.73-30.32l0,.48A164.39,164.39,0,0,0,860.28,383c-8-3.16-16.07-6-24.21-8.67-16.3-5.34-32.8-10.07-49.35-14.57h0l-30.22-14.64-.11-.05,0-.12a247.94,247.94,0,0,1,16.12-51A266,266,0,0,1,798.9,247.41Zm0,0A266.59,266.59,0,0,0,772.63,294a248.47,248.47,0,0,0-16,51l-.08-.18,30.26,14.56h0c16.57,4.44,33.08,9.14,49.4,14.47,8.15,2.67,16.26,5.5,24.25,8.65a167.26,167.26,0,0,1,23.31,11l.37.22-.35.26a404.7,404.7,0,0,1-46.76,30.41,383.19,383.19,0,0,1-50.61,23.48,403.7,403.7,0,0,1-108.63,24.33l0-.8a445.8,445.8,0,0,0,59.89-4.07,316.59,316.59,0,0,0,58.38-13.66,243.49,243.49,0,0,0,53.92-26,220,220,0,0,0,45.29-39.06l.13.74a274.49,274.49,0,0,0-32.19-14.92A174.49,174.49,0,0,0,829.07,365l-.09,0-.07,0-58.57-37.23-.25-.15.07-.29a50.36,50.36,0,0,1,6.33-14.79,60.48,60.48,0,0,1,10.37-12.3,91.57,91.57,0,0,1,12.88-9.64A126,126,0,0,1,814,283a203.28,203.28,0,0,1,30.27-10.67c10.33-2.82,20.82-5,31.36-6.86s21.14-3.29,31.77-4.48,21.29-2.08,32-2.78c21.35-1.4,42.74-2,64.12-2.15v.55c-34.12.71-68.23,1.59-102.33,2.93-17,.69-34.1,1.5-51.12,2.6-8.52.57-17,1.16-25.52,1.94s-17,1.64-25.43,2.88h0v0Z" transform="translate(-677.75 -247.41)"/>
    </g>
    <g>
      <path class="cls-1" d="M900.64,279.12l5.19.71q10.15,10.83,3.38,10.83l35.86,10.93Q895.45,301.59,900.64,279.12ZM908.76,445a4.25,4.25,0,0,1-.67-1.58,15.38,15.38,0,0,0-.57-2.81c-.38-1.47-.71-3.1-1-4.9s-.61-3.58-.9-5.31a24.4,24.4,0,0,1-.46-3.94v-2.24A43.46,43.46,0,0,1,906.62,413a43,43,0,0,0,1.47-11.13V391.36a33.92,33.92,0,0,0-1.58-10.62q-1.82-5.52-3.61-11.13a35.76,35.76,0,0,1-1.81-11v-2.35c0-.68.08-1.89.23-3.63s.3-3.56.45-5.46.3-3.73.45-5.47.23-2.94.23-3.62a6.12,6.12,0,0,1,.67-2.1,19.37,19.37,0,0,1,1.81-3.06,16.79,16.79,0,0,1,2.37-2.71,3.81,3.81,0,0,1,2.59-1.12c3.61,0,5.56.63,5.87,1.89a16.6,16.6,0,0,1,.45,3.73,13.06,13.06,0,0,1-1.36,5.77,13.15,13.15,0,0,0-1.35,5.77c0,.95.86,1.79,2.59,2.5a34.86,34.86,0,0,0,6,1.79l6.88,1.43a16.69,16.69,0,0,1,5.3,1.84V357a13.1,13.1,0,0,1-3.72,8.79,41.37,41.37,0,0,0-6,8.58,20.23,20.23,0,0,0-.9,3.42c-.3,1.53-.68,3.13-1.13,4.8s-.9,3.23-1.35,4.7a4.17,4.17,0,0,1-2,2.8,30.08,30.08,0,0,1-.79,12.51,28.14,28.14,0,0,0-.56,12.62,2.83,2.83,0,0,0-1.81,3,29.57,29.57,0,0,1,.23,3,17,17,0,0,0,1.69,7.36,37.89,37.89,0,0,1,2.59,7.25,21.59,21.59,0,0,1,.9,4.24,38.14,38.14,0,0,1,.45,3.93v15.73a11.54,11.54,0,0,0,.46,1.68,7.15,7.15,0,0,0,.9,2.1c0,.13.22.44.67.92s.68.78.68.91v.21c0,.54-.45,1.11-1.35,1.69a11,11,0,0,1-2.71,1.27h-.9a9,9,0,0,1-3.5-.71c-1.12-.48-2-.87-2.59-1.18s-1.8-.93-3.61-1.89V446.61A7,7,0,0,1,908.76,445Z" transform="translate(-677.75 -247.41)"/>
      <g>
        <path class="cls-1" d="M900.64,279.12l5.2.61h0l0,0a46.11,46.11,0,0,1,4.78,5.64,16.28,16.28,0,0,1,1,1.61,4.61,4.61,0,0,1,.53,1.86,1.34,1.34,0,0,1,0,.52,1.57,1.57,0,0,1-.54.91,1.57,1.57,0,0,1-.45.29,4.65,4.65,0,0,1-1.92.37l.09-.59c6,1.77,12,3.51,18,5.33l18,5.41,3.29,1h-3.44c-4.78,0-9.57-.19-14.34-.61a80.18,80.18,0,0,1-14.18-2.39,40.19,40.19,0,0,1-6.78-2.48,20.91,20.91,0,0,1-5.95-4.09,13.14,13.14,0,0,1-2.18-2.89,11.71,11.71,0,0,1-1.27-3.38A15.75,15.75,0,0,1,900.64,279.12Zm0,0a16.22,16.22,0,0,0,0,7.07,11.27,11.27,0,0,0,1.34,3.25,12.61,12.61,0,0,0,2.2,2.74A20.61,20.61,0,0,0,910,296a40.28,40.28,0,0,0,6.71,2.31,87.39,87.39,0,0,0,14.06,2.22c4.74.39,9.5.52,14.26.52l-.14,1L927,296.54c-6-1.82-11.93-3.72-17.89-5.59l-1.63-.52,1.71-.07a4.18,4.18,0,0,0,1.68-.28,1.2,1.2,0,0,0,.75-1.2,4.09,4.09,0,0,0-.45-1.66,14.46,14.46,0,0,0-.87-1.59,48,48,0,0,0-4.56-5.73l.06,0Z" transform="translate(-677.75 -247.41)"/>
        <path class="cls-1" d="M908.76,445a9,9,0,0,1-.58-1.16,1.94,1.94,0,0,1-.11-.63c0-.22-.06-.43-.1-.64-.15-.85-.41-1.68-.57-2.53-.35-1.69-.74-3.38-1-5.08l-.87-5.11c-.15-.85-.27-1.71-.34-2.57s0-1.73,0-2.59a44.09,44.09,0,0,1,1.09-10.3A47.66,47.66,0,0,0,908,404.23c.09-1.72,0-3.44,0-5.17l0-5.19c0-1.73,0-3.45-.11-5.17a33.89,33.89,0,0,0-.74-5.1c-.37-1.68-1-3.3-1.49-5L904,373.73l-1.61-4.93a38.53,38.53,0,0,1-1.17-5.08,34.87,34.87,0,0,1-.42-5.21c0-.86,0-1.72,0-2.59l.15-2.6.79-10.35c.15-1.75.2-3.37.33-5.19a10.1,10.1,0,0,1,.94-2.54,19.12,19.12,0,0,1,1.35-2.27,18.07,18.07,0,0,1,1.63-2.09,8.48,8.48,0,0,1,2.06-1.77,3.87,3.87,0,0,1,1.38-.45,10.35,10.35,0,0,1,1.36,0,15,15,0,0,1,2.65.28,6,6,0,0,1,1.32.42,2.6,2.6,0,0,1,1.18,1,4.63,4.63,0,0,1,.41,1.39c.08.44.14.88.19,1.32a13.76,13.76,0,0,1-.41,5.3,15.73,15.73,0,0,1-1,2.48,12.52,12.52,0,0,0-.84,2.36,12.08,12.08,0,0,0-.37,2.47c0,.2,0,.42,0,.61a1,1,0,0,0,.11.44,2.15,2.15,0,0,0,.7.79,9.2,9.2,0,0,0,2.2,1.08c.79.3,1.6.56,2.42.79,1.63.48,3.32.79,5,1.15l5.08,1a16.7,16.7,0,0,1,5,1.82l.23.14v3.22a11.5,11.5,0,0,1-.32,3,14.24,14.24,0,0,1-2.7,5.4c-.62.8-1.3,1.5-1.91,2.25s-1.22,1.51-1.79,2.29a38.55,38.55,0,0,0-3.06,4.93l0,0a29.19,29.19,0,0,0-1.05,4l-1,4.14-1.18,4.08a9.44,9.44,0,0,1-.78,2.06,3.68,3.68,0,0,1-1.67,1.64l.24-.43a30.66,30.66,0,0,1-.88,12.71,28,28,0,0,0-.59,12.42l0,.22-.19.09a2.77,2.77,0,0,0-1.62,1.81,4.19,4.19,0,0,0,0,1.28l.1,1.4c0,.46.07.93.09,1.39s0,.9.06,1.36a17.44,17.44,0,0,0,.45,2.68,18.29,18.29,0,0,0,.89,2.58c.37.82.77,1.68,1.11,2.53a39.26,39.26,0,0,1,1.7,5.29v0a34.48,34.48,0,0,1,1.19,7,22.72,22.72,0,0,1,.13,3.5l0,3.51,0,7v2.63a2.4,2.4,0,0,0,.11.84,11.91,11.91,0,0,0,1.22,3.24l0,.05c.21.52.8.95,1.17,1.47a1.64,1.64,0,0,1,.14.22.64.64,0,0,1,0,.26,1.42,1.42,0,0,1-.08.5,2.37,2.37,0,0,1-.6.8,8.29,8.29,0,0,1-1.63,1.06,10.07,10.07,0,0,1-1.8.75h0a11.35,11.35,0,0,1-2.85-.22,12.65,12.65,0,0,1-2.67-1c-.87-.39-1.74-.79-2.57-1.25l-2.53-1.33h0v0l0-18.18h0A7.4,7.4,0,0,1,908.76,445Zm0,0a7.1,7.1,0,0,0,1.13,1.58h0l0,18.18,0,0,2.53,1.32c.83.46,1.7.85,2.57,1.23a12.13,12.13,0,0,0,2.65,1,11.19,11.19,0,0,0,2.83.2h0a10.28,10.28,0,0,0,1.78-.74,8.71,8.71,0,0,0,1.6-1.06,2,2,0,0,0,.56-.75,1,1,0,0,0,.07-.45c0-.17-.05-.25-.15-.4-.36-.53-.93-.87-1.2-1.55v0a12,12,0,0,1-1.26-3.29,3,3,0,0,1-.1-.43,3.54,3.54,0,0,1,0-.45v-2.63l0-7,0-3.51a22.55,22.55,0,0,0-.16-3.49,33.83,33.83,0,0,0-1.23-6.83v0h0a36.53,36.53,0,0,0-1.72-5.21c-.35-.86-.74-1.67-1.13-2.52a18.83,18.83,0,0,1-.94-2.64,18.33,18.33,0,0,1-.49-2.76c0-.46-.07-.93-.07-1.4s-.07-.91-.11-1.37l-.11-1.36a4.86,4.86,0,0,1,0-1.47,3.35,3.35,0,0,1,1.9-2.2l-.15.31a28.44,28.44,0,0,1,.5-12.71,30,30,0,0,0,.73-12.41l0-.3.28-.13a2.86,2.86,0,0,0,1.27-1.3,8.39,8.39,0,0,0,.7-1.9l1.16-4.05,1-4.1a29.72,29.72,0,0,1,1.07-4.17v0a39.32,39.32,0,0,1,3.12-5.06c.58-.8,1.18-1.58,1.81-2.34s1.31-1.49,1.89-2.24a13.35,13.35,0,0,0,2.51-5,10.92,10.92,0,0,0,.28-2.8v-2.94l.23.41a16,16,0,0,0-4.7-1.67l-5.07-1.07c-1.69-.35-3.4-.68-5.08-1.17-.85-.25-1.68-.52-2.5-.83a9.89,9.89,0,0,1-2.43-1.22,3.08,3.08,0,0,1-1-1.15,2,2,0,0,1-.2-.81c0-.24,0-.45,0-.68a13.26,13.26,0,0,1,.4-2.65,13.67,13.67,0,0,1,.91-2.51,14.07,14.07,0,0,0,.91-2.35,12.76,12.76,0,0,0,.41-5c0-.42-.1-.83-.18-1.25a3.94,3.94,0,0,0-.29-1.09,3,3,0,0,0-1.94-1,14.6,14.6,0,0,0-2.49-.28c-.42,0-.88,0-1.23,0a2.86,2.86,0,0,0-1.08.35,8,8,0,0,0-1.85,1.58,17.84,17.84,0,0,0-1.57,2,18.46,18.46,0,0,0-1.32,2.17,9.84,9.84,0,0,0-.89,2.29c-.12,1.62-.2,3.46-.37,5.14l-.89,10.33-.17,2.57c0,.85,0,1.72,0,2.58a33.86,33.86,0,0,0,.37,5.13,36.31,36.31,0,0,0,1.11,5l1.56,4.94,1.57,4.94a49.28,49.28,0,0,1,1.45,5,34.46,34.46,0,0,1,.7,5.15c.12,1.74.06,3.47.06,5.19l0,5.19c0,1.72,0,3.45-.08,5.18a48.43,48.43,0,0,1-1.78,10.21,43.76,43.76,0,0,0-1.13,10.27c0,.86,0,1.73,0,2.59s.18,1.71.32,2.56l.86,5.12c.29,1.7.68,3.38,1,5.08.16.85.42,1.67.57,2.53,0,.21.08.42.1.64a1.71,1.71,0,0,0,.11.63A8.9,8.9,0,0,0,908.76,445Z" transform="translate(-677.75 -247.41)"/>
      </g>
    </g>
    <g>
      <path class="cls-1" d="M942.69,333.84l.32,2.24.16.21a11.65,11.65,0,0,0,1.75.71q1.44.51,1.44.72c.53.75.74,1.22.64,1.43.21.48-.13.78-1,.92s-1.25.44-1,.92l.32.51q3.84,5.61,7.27,10.87a48.75,48.75,0,0,1,5.34,10.88,1.87,1.87,0,0,0-.48,1.33,1.61,1.61,0,0,0,.32,1,2.7,2.7,0,0,0,1,1.53,19.29,19.29,0,0,0,1.92,1.38,11.72,11.72,0,0,1,1.83,1.43,4.4,4.4,0,0,1,1.12,1.58l4.47,14.71a4.15,4.15,0,0,1,1.44,1.48c.32.58.63,1.14,1,1.69a3.1,3.1,0,0,1-.08,2.14,2.29,2.29,0,0,0,.08,1.94q.33,1.74,2.8,4.09a21.74,21.74,0,0,1,3.59,4.18,40.34,40.34,0,0,1,3.35,7.05q1.27,3.57,2.72,6.95a19.53,19.53,0,0,0,3.43,4.18,7.5,7.5,0,0,1,2.47,3.78,2.85,2.85,0,0,1,.16,2.45,4.14,4.14,0,0,0-.16,2.56,1.42,1.42,0,0,0,.8,1.12,13.57,13.57,0,0,0,1.68.92,14.2,14.2,0,0,1,1.67.92,2,2,0,0,1,1,1.22,2.05,2.05,0,0,1-.56,1.84,8.62,8.62,0,0,1-1.76,1.33,22.23,22.23,0,0,0-2,1.33,2.63,2.63,0,0,0-1.12,1.73c-.32,1,0,1.49.8,1.59a15.24,15.24,0,0,0,3,0,19.76,19.76,0,0,1,3.44,0,2.61,2.61,0,0,1,2.31,1.58v1.94a2.16,2.16,0,0,0,.48,1q.32.36-.48.87c.1,0,.1,0,0,.05s-.11.05,0,.05q2.71.31,3-.15a3.44,3.44,0,0,0,.48-1.13q.17-.66,1.68-1.17a25.23,25.23,0,0,1,6.46-.51v.1a10.37,10.37,0,0,1,3.2.56,18.12,18.12,0,0,1,2.07,1,18.82,18.82,0,0,0,2,1,8.85,8.85,0,0,0,3,.56v1.22a.93.93,0,0,1-.24.67,1,1,0,0,1-.88.15l-15.32-1.12a5.13,5.13,0,0,0-2.88.3c-.63.34-.85.72-.63,1.13a4.9,4.9,0,0,0,2.63,1.94,5.75,5.75,0,0,1,3,2.35q11.82-.51,25.38,0t25.86.61q5.91.11,11.58.51t11.89.61a5.34,5.34,0,0,0,1.52,0,2.94,2.94,0,0,1,1.19,0c.64.41.24.7-1.19.87a54,54,0,0,1-6,.26c-2.66,0-5.62,0-8.86-.05s-6.36-.05-9.34-.05-5.67,0-8.06.1a12.83,12.83,0,0,0-4.55.61q-2.07-.11-7.1-.2t-10.62-.26c-3.72-.1-7.24-.17-10.53-.2s-5.65-.05-7-.05a4.89,4.89,0,0,1-2.07,0,8.63,8.63,0,0,1-2.32-.57,6.21,6.21,0,0,0-2.15-.46h-.8c-.11.07-.13.24-.08.51a3.86,3.86,0,0,1,.08.62c.1.47-.72.69-2.47.66s-4-.17-6.87-.41-5.88-.51-9.18-.82-6.38-.49-9.26-.56c-2.23-.13-4.33-.17-6.3-.1s-3.94.15-5.91.26a54.94,54.94,0,0,1-5.74,0,24.13,24.13,0,0,1-5.51-1,6.36,6.36,0,0,0-1.76-.62c-.85-.2-1.38-.34-1.59-.41l-2.4-.2h-.63a3.77,3.77,0,0,0-1.92.1,3.64,3.64,0,0,1-1.92.1q-3-.19-2.31-1.17c.48-.65,1.12-1.43,1.91-2.35a3.49,3.49,0,0,0,.88-3.06c-.21-1.13-2-2.23-5.43-3.32l-.16-.05c.11,0,.11.05,0,.05,0-.21-.31-.58-1-1.13s-1-.88-1-1c-.32-.4-.08-.71.72-.92a3.76,3.76,0,0,1,1.52-.2,11,11,0,0,1,3.51.82c1.17.47,2.42.95,3.75,1.43s2.74,1,4.23,1.48a23.59,23.59,0,0,0,5,1.07,6.76,6.76,0,0,0,2.31-.15l1.68-.51,1.59-.52a5.51,5.51,0,0,1,2.08-.15,6.44,6.44,0,0,1,2.47.56,6.55,6.55,0,0,0,2.64.56,5.56,5.56,0,0,0,2.31.11,3.25,3.25,0,0,0,.88-.46,8.21,8.21,0,0,1,.8-.56,4.07,4.07,0,0,1,1.75-.41,13.93,13.93,0,0,1,3.51-.31,6,6,0,0,0,1.6-.15c.32-.1.37-.5.16-1.18l-6.7,6.13,4,.51c.1,0,.16-.2.16-.61s0-1-.08-1.63-.14-1.37-.24-2.05-.22-1.26-.32-1.73a55.54,55.54,0,0,1-1.2-6.54,41.12,41.12,0,0,0-1.36-6.54,45.21,45.21,0,0,0-3-6.38q-1.83-3.31-3.83-6.64c-1.33-2.21-2.61-4.41-3.83-6.58a32.1,32.1,0,0,1-2.8-6.44l-.63-.82a9.55,9.55,0,0,1-.64-3,12.44,12.44,0,0,1,.16-3.52,6.48,6.48,0,0,1,1.35-3,3.78,3.78,0,0,1,3.44-1.08l-1.28-2.55q-2.07-3.78-4.31-8a35,35,0,0,1-3.19-8.06,1.59,1.59,0,0,1-.24-1.44,5.75,5.75,0,0,1,.64-1.32,7.16,7.16,0,0,0,.63-1.23,2.73,2.73,0,0,0,.08-1.53,72.3,72.3,0,0,0-2.79-7.76q-1.68-4-3.43-8c-1.17-2.69-2.31-5.34-3.43-8a71.54,71.54,0,0,1-2.8-7.71,2.67,2.67,0,0,1-.72-.91,3,3,0,0,1-.39-1.44,1.6,1.6,0,0,1,.55-1.22,2.41,2.41,0,0,1,1.84-.41c1,.21,1.22.33.8.36s-.48.32-.16.87Z" transform="translate(-677.75 -247.41)"/>
      <path class="cls-1" d="M942.69,333.84l.32,2.24h0l.16.21h0a11,11,0,0,0,1.63.67l.83.31c.25.13.57.19.74.46h0a7.82,7.82,0,0,1,.43.68,3,3,0,0,1,.18.36.56.56,0,0,1,0,.4h0a.59.59,0,0,1,0,.41.65.65,0,0,1-.29.3,2.45,2.45,0,0,1-.8.23,2.69,2.69,0,0,0-.78.23.48.48,0,0,0-.24.67h0c1.17,1.8,2.39,3.58,3.58,5.37l3.59,5.37a48.58,48.58,0,0,1,5.8,11.51v0l0,0a1.71,1.71,0,0,0-.46,1.11,1.68,1.68,0,0,0,.3,1.16h0v0a2.79,2.79,0,0,0,1.22,1.63l1.73,1.24a12.61,12.61,0,0,1,1.7,1.31,4.74,4.74,0,0,1,1.27,1.73h0l4.5,14.7,0-.05a4.25,4.25,0,0,1,1.44,1.45l1,1.74v0h0a3.45,3.45,0,0,1-.05,2.13,2.21,2.21,0,0,0,.05,1.94h0a6.34,6.34,0,0,0,1.53,2.74c.69.81,1.51,1.51,2.26,2.29a20.74,20.74,0,0,1,2.1,2.47,26.19,26.19,0,0,1,1.65,2.79,46.43,46.43,0,0,1,2.58,5.93l2.36,6v0a18.89,18.89,0,0,0,3.11,3.85,15.22,15.22,0,0,1,1.72,1.86,5.8,5.8,0,0,1,1.11,2.3l0,0a3.78,3.78,0,0,1,.38,1.29,2.75,2.75,0,0,1-.22,1.33,4,4,0,0,0-.14,2.42v0c0,.47.46.85,1,1.1l1.48.81,1.53.83a2.29,2.29,0,0,1,1.14,1.4v0a2.29,2.29,0,0,1-.75,2.13,10.19,10.19,0,0,1-1.78,1.31l-1.8,1.21a2.47,2.47,0,0,0-1.09,1.64h0v0c-.14.42-.19.91.09,1.12a2.48,2.48,0,0,0,1.28.25,21.38,21.38,0,0,0,2.87-.11,20.36,20.36,0,0,1,2.92.05,3.15,3.15,0,0,1,1.46.5,2.91,2.91,0,0,1,1,1.2l0,0v1.94a2.74,2.74,0,0,0,.17.48,1.81,1.81,0,0,0,.28.42.52.52,0,0,1,.11.44.77.77,0,0,1-.18.35,2.16,2.16,0,0,1-.48.39l-.12-.42h.11a.25.25,0,0,1,.09,0l0,0a.2.2,0,0,1,.06.14.22.22,0,0,1,0,.17c-.12.1-.1.06-.13.09l-.05,0h0s0,.05.09-.11a.24.24,0,0,0,0-.24s-.07,0-.07-.05h0c.53.06,1.06.11,1.59.12a4.91,4.91,0,0,0,.77,0,1.54,1.54,0,0,0,.34-.08c.11,0,.09,0,.18-.17a2.76,2.76,0,0,0,.3-.68c.05-.13.06-.23.13-.41a1.24,1.24,0,0,1,.28-.41,4.11,4.11,0,0,1,1.52-.79,14.14,14.14,0,0,1,3.26-.45c1.09-.06,2.17-.08,3.25-.08h.25v.35l-.23-.25a12.84,12.84,0,0,1,2.73.39,7,7,0,0,1,1.28.55l1.23.6c.8.39,1.59.85,2.39,1.19a9.6,9.6,0,0,0,2.58.42l.25,0v1a5.16,5.16,0,0,1,0,.76,1,1,0,0,1-.54.77,1.62,1.62,0,0,1-.86.06h0l-13.43-1-1.68-.13a11.36,11.36,0,0,0-1.64,0,2.93,2.93,0,0,0-1.45.42c-.21.12-.38.3-.39.42s.1.33.25.53a7.41,7.41,0,0,0,2.72,1.67,5.8,5.8,0,0,1,2.66,2.27l-.28-.16c6.23-.27,12.47-.33,18.7-.22L1043,453l9.33.21,4.67.1,4.68.2c6.25.25,12.45.57,18.66.88h.08a5,5,0,0,0,1.17,0,7,7,0,0,1,1.41-.05.73.73,0,0,1,.16,0l.12.06,0,0a1.1,1.1,0,0,1,.18.14,1,1,0,0,1,.2.24.65.65,0,0,1,0,.52.82.82,0,0,1-.48.43,1.49,1.49,0,0,1-.37.13,9.84,9.84,0,0,1-1.36.22c-1.75.17-3.5.21-5.25.22l-10.43,0c-3.48,0-7-.06-10.42,0l-5.21.08c-.87,0-1.72,0-2.57.11a7.66,7.66,0,0,0-2.35.46l-.14.06H1045l-17.63-.47-8.81-.19c-2.94-.07-5.88-.06-8.82-.1l.24-.06a1.65,1.65,0,0,1-.67.16h-.51l-1-.08a8.68,8.68,0,0,1-1.92-.37c-.65-.19-1.18-.45-1.75-.56a6.76,6.76,0,0,0-1.77-.12l.23-.07c.13-.1.09-.16.1-.1s0,.1,0,.2l.08.66v-.1a.79.79,0,0,1-.3.79,1.64,1.64,0,0,1-.51.24,6.05,6.05,0,0,1-.89.14,11.33,11.33,0,0,1-1.65,0l-3.24-.19-3.24-.2-3.22-.3c-2.15-.18-4.3-.4-6.44-.57l-6.44-.4c-2.15-.17-4.29-.17-6.44-.21s-4.29.07-6.45.14-4.32.2-6.49.1a24.42,24.42,0,0,1-6.45-1h0l0,0a6.48,6.48,0,0,0-1.54-.54l-1.73-.45.08,0-2.4-.21H944l.63-.05a1,1,0,0,0-.29,0l-.44,0c-.31,0-.62.09-.94.14s-.65.12-1,.16a4.41,4.41,0,0,1-.52,0,1.31,1.31,0,0,1-.66-.13l.16.05a7.51,7.51,0,0,1-2.13-.39,1.09,1.09,0,0,1-.56-.47.81.81,0,0,1,.11-.82l.66-.81,1.32-1.61a3.28,3.28,0,0,0,.81-1.66,3,3,0,0,0,0-.94,1.29,1.29,0,0,0-.34-.76,5,5,0,0,0-1.54-1.14,14.63,14.63,0,0,0-1.85-.82l-.95-.35-.49-.16-.24-.08h0c-.17.53.22-.72.19-.59l0,0,.08,0,.08,0,.06.05s0,0,0,.07a.31.31,0,0,1-.08.4.17.17,0,0,1-.07,0,.12.12,0,0,1-.06,0l-.14,0-.3-.31s0-.08-.1-.14a2.32,2.32,0,0,0-.21-.25l-.51-.48c-.19-.15-.37-.32-.55-.49a3.7,3.7,0,0,1-.28-.28,1.26,1.26,0,0,1-.13-.17.57.57,0,0,1-.14-.34l.07.19a.79.79,0,0,1-.2-.55.75.75,0,0,1,.32-.53,2.43,2.43,0,0,1,.8-.33c.25-.06.5-.12.76-.16a2.13,2.13,0,0,1,.89,0h-.08a11.5,11.5,0,0,1,3.76.9l3.53,1.35,3.57,1.26a23,23,0,0,0,3.6,1,11.81,11.81,0,0,0,3.68.27c1.16-.25,2.39-.69,3.58-1.06a5,5,0,0,1,2-.25,10.59,10.59,0,0,1,1.93.23,5.21,5.21,0,0,1,.94.32,4.23,4.23,0,0,0,.84.34,8.41,8.41,0,0,0,1.82.26h0a12.45,12.45,0,0,0,1.48.18,2.43,2.43,0,0,0,.68-.06,3.32,3.32,0,0,0,.64-.29l.61-.43a4,4,0,0,1,.7-.43,5.49,5.49,0,0,1,1.57-.29h0a14.65,14.65,0,0,1,3.57-.3h0a7,7,0,0,0,1.4-.1c.13,0,.18-.05.2-.08a.3.3,0,0,0,0-.2,1.91,1.91,0,0,0-.11-.64l.38.1-6.72,6.12-.12-.37,4,.51h0c-.15,0-.09.07-.09,0s0-.09,0-.14a2.16,2.16,0,0,0,0-.36l0-.76c0-.5-.05-1-.12-1.5-.1-1-.27-2-.46-3a58,58,0,0,1-1.13-6,41.54,41.54,0,0,0-1.1-6,18.14,18.14,0,0,0-1-2.85c-.4-.94-.82-1.86-1.28-2.76-.89-1.82-2-3.55-3-5.32l-3-5.29c-1-1.76-2.06-3.5-3-5.29a31.34,31.34,0,0,1-2.35-5.65l0,0-.64-.82h0v0a10.25,10.25,0,0,1-.67-3.36,12.25,12.25,0,0,1,.24-3.42,6.4,6.4,0,0,1,1.58-3.05,4.24,4.24,0,0,1,3.29-.85l-.11.16c-.76-1.54-1.53-3.07-2.36-4.57L956,382.58a50.94,50.94,0,0,1-2.3-4.62,32,32,0,0,1-1.65-4.89v0a1.67,1.67,0,0,1-.25-1.47,6,6,0,0,1,.64-1.35c.23-.43.47-.86.67-1.3a2.88,2.88,0,0,0,.06-1.43h0a76.78,76.78,0,0,0-2.86-7.95L947,351.82,943.64,344a71.77,71.77,0,0,1-2.88-8h0a3.29,3.29,0,0,1-.87-1.22,2.57,2.57,0,0,1-.22-1.47,1.64,1.64,0,0,1,.89-1.14,3.12,3.12,0,0,1,1.48-.17h0l.58.13.29.09c.05,0,.1,0,.13.08s-.09,0-.14.06-.44.08-.42.31a1.19,1.19,0,0,0,.2.56h0Zm0,0v-.51h0a1.32,1.32,0,0,1-.21-.56c0-.23.24-.32.43-.32s.11,0,.13-.05-.08,0-.12-.07a2.46,2.46,0,0,0-.29-.09l-.58-.13h0a3.06,3.06,0,0,0-1.47.17,1.6,1.6,0,0,0-.88,1.14,2.5,2.5,0,0,0,.22,1.45,3.15,3.15,0,0,0,.86,1.2h0a72.47,72.47,0,0,0,2.9,7.94l3.37,7.77,3.34,7.77a77.14,77.14,0,0,1,2.89,8h0a3.18,3.18,0,0,1,0,1.5c-.22.45-.46.89-.69,1.33a5.82,5.82,0,0,0-.62,1.31,1.53,1.53,0,0,0,.24,1.34h0v0a32.39,32.39,0,0,0,1.66,4.86,49.24,49.24,0,0,0,2.31,4.59l2.46,4.53c.83,1.5,1.61,3,2.38,4.58l.08.17-.19,0a4,4,0,0,0-3.11.8,6.15,6.15,0,0,0-1.51,2.93,12.55,12.55,0,0,0-.22,3.35,10.35,10.35,0,0,0,.66,3.28l0,0,.64.82v0a31.19,31.19,0,0,0,2.35,5.59c1,1.78,2,3.52,3,5.28l3.07,5.28c1,1.77,2.08,3.49,3,5.32.46.92.89,1.84,1.29,2.78a18.47,18.47,0,0,1,1,2.9,41.05,41.05,0,0,1,1.13,6,58.34,58.34,0,0,0,1.14,6,28.06,28.06,0,0,1,.47,3,11.29,11.29,0,0,1,.13,1.54l0,.77a1.81,1.81,0,0,1,0,.4.6.6,0,0,1,0,.22.34.34,0,0,1-.31.29h0l-4-.5-.47-.06.35-.32,6.69-6.14.28-.25.1.35a2.85,2.85,0,0,1,.14.8.81.81,0,0,1-.16.48.8.8,0,0,1-.45.24,7.81,7.81,0,0,1-1.51.12h0a14.38,14.38,0,0,0-3.45.3h0a5.11,5.11,0,0,0-1.43.27,2.83,2.83,0,0,0-.59.37l-.64.45a4.26,4.26,0,0,1-.75.35,2.78,2.78,0,0,1-.84.07,9.93,9.93,0,0,1-1.56-.18h0a9.78,9.78,0,0,1-1.92-.28,4.4,4.4,0,0,1-.92-.36,4.26,4.26,0,0,0-.85-.29,11,11,0,0,0-1.83-.21,4.65,4.65,0,0,0-1.78.23c-1.21.38-2.36.81-3.67,1.09a12.07,12.07,0,0,1-3.85-.26,22.06,22.06,0,0,1-3.68-1l-3.58-1.24L939.7,441a10.89,10.89,0,0,0-3.57-.85h-.08a1.93,1.93,0,0,0-.6,0c-.23,0-.47.1-.71.16a1.62,1.62,0,0,0-.59.23c-.07.05-.07.08-.07.08a.36.36,0,0,0,.07.14l.06.18c0-.11,0,0,0,0l.1.11a2.72,2.72,0,0,0,.24.24c.17.17.35.32.53.48s.37.33.55.51.18.19.27.31a.81.81,0,0,1,.21.51l-.31-.31h0l0,0-.07,0a.43.43,0,0,0-.11.16.33.33,0,0,0,0,.23c0,.06,0,0,0,.07l.05,0h0l0,0h0c0,.13.36-1.11.19-.58h0l.24.08.49.16,1,.35a17.1,17.1,0,0,1,1.91.85,5.67,5.67,0,0,1,1.75,1.29,2.16,2.16,0,0,1,.48,1.09,4.2,4.2,0,0,1,0,1.12,4,4,0,0,1-1,2l-1.29,1.58-.63.79c-.08.11-.06.14-.06.14a.48.48,0,0,0,.23.16,6.69,6.69,0,0,0,1.91.33l.73.06h-.57a1,1,0,0,0,.29,0l.44,0,.94-.15c.32-.06.64-.12,1-.16a4.41,4.41,0,0,1,.52,0,1.29,1.29,0,0,1,.66.13l-.18,0h.66l2.4.2h.07l1.68.43a6.66,6.66,0,0,1,1.76.63l-.09,0c4.08,1.27,8.42,1.07,12.71.87,2.16-.09,4.31-.26,6.47-.17s4.34,0,6.49.2l6.47.38c2.15.16,4.29.37,6.44.55l3.22.28,3.21.19,3.22.18a10.31,10.31,0,0,0,1.57,0,3.75,3.75,0,0,0,.71-.12.69.69,0,0,0,.22-.09s0,.07,0,.09h0V456l-.07-.5a1.34,1.34,0,0,1,0-.38.73.73,0,0,1,.31-.62l.1-.06h1.08a5.58,5.58,0,0,1,1,.13c.66.13,1.27.42,1.82.58a9,9,0,0,0,1.75.33l.91.06a2.94,2.94,0,0,0,.42,0,1.53,1.53,0,0,0,.25,0l.23-.06c2.95,0,5.89,0,8.83.07l8.83.16c5.87.13,11.75.25,17.65.43l-.26.06a8.31,8.31,0,0,1,2.73-.56c.89-.07,1.77-.11,2.64-.11l5.22-.06c3.48-.05,7,0,10.44,0l10.42.07c1.73,0,3.46,0,5.16-.21a9.09,9.09,0,0,0,1.23-.18l.24-.08c.06,0,.1-.09,0,0a.29.29,0,0,0,0,.21s0,0,0,0l-.08-.06,0,0,0,0s0,0,0,0a7.41,7.41,0,0,0-1.2.05,5.26,5.26,0,0,1-1.42,0h.07c-6.22-.33-12.46-.68-18.66-.94l-4.66-.21-4.67-.12-9.34-.24-18.68-.5c-6.22-.13-12.45-.1-18.66.16h-.2l-.09-.17a5.22,5.22,0,0,0-2.38-2,7.72,7.72,0,0,1-2.94-1.85,3.45,3.45,0,0,1-.25-.41.91.91,0,0,1-.11-.58,1.31,1.31,0,0,1,.65-.84,3.7,3.7,0,0,1,1.74-.5,11,11,0,0,1,1.73.06l1.68.13,13.42,1h0a1.26,1.26,0,0,0,.56,0,.52.52,0,0,0,.24-.37c0-.16,0-.45,0-.67v-.72l.25.26a10,10,0,0,1-2.73-.46c-.87-.37-1.64-.83-2.46-1.23l-1.2-.59a6.6,6.6,0,0,0-1.2-.52,12,12,0,0,0-2.62-.38h-.23v-.34l.24.25c-1.07,0-2.15,0-3.22.06a14.67,14.67,0,0,0-3.14.42,3.77,3.77,0,0,0-1.34.68c-.18.16-.2.3-.29.62a3.88,3.88,0,0,1-.35.78.77.77,0,0,1-.41.36,1.56,1.56,0,0,1-.45.11,6,6,0,0,1-.84,0c-.55,0-1.09-.06-1.64-.12H998l-.05,0-.08-.05a.23.23,0,0,1-.05-.24c.1-.18.1-.11.13-.14l0,0H998l0,0a.26.26,0,0,0-.05.16.2.2,0,0,0,.06.13l0,0,.07,0h0l-.73,0,.61-.4a2,2,0,0,0,.38-.31c.1-.13.1-.15.06-.21a2.27,2.27,0,0,1-.34-.51,3.73,3.73,0,0,1-.2-.56v-2l0,.09a2.4,2.4,0,0,0-2.08-1.45,19.35,19.35,0,0,0-2.85-.06A23.45,23.45,0,0,1,990,441l-.74-.06a1.5,1.5,0,0,1-.77-.29,1,1,0,0,1-.36-.79,2.45,2.45,0,0,1,.14-.78v0a2.86,2.86,0,0,1,1.25-1.89l1.83-1.22a10.36,10.36,0,0,0,1.73-1.26,1.88,1.88,0,0,0,.63-1.8v0a1.88,1.88,0,0,0-1-1.17l-1.48-.82-1.52-.83a1.77,1.77,0,0,1-1.13-1.41v0a4.3,4.3,0,0,1,.16-2.63,2.75,2.75,0,0,0-.14-2.34v-.05a5.32,5.32,0,0,0-1-2.17,13.65,13.65,0,0,0-1.68-1.81,19.69,19.69,0,0,1-3.15-3.94h0l-2.34-6a48.24,48.24,0,0,0-2.54-5.91,28.24,28.24,0,0,0-1.62-2.77,21.81,21.81,0,0,0-2.08-2.44c-.74-.77-1.56-1.48-2.26-2.31a6.62,6.62,0,0,1-1.58-2.85v0a3.12,3.12,0,0,1-.26-1,2,2,0,0,1,.22-1.06,3.25,3.25,0,0,0,0-2v0l-1-1.75a4.11,4.11,0,0,0-1.36-1.39l0,0,0,0-4.44-14.71h0a4.6,4.6,0,0,0-1.23-1.68,11.17,11.17,0,0,0-1.68-1.29l-1.73-1.25a2.93,2.93,0,0,1-1.26-1.72v0a1.78,1.78,0,0,1-.32-1.24,2,2,0,0,1,.49-1.19v.06a49.17,49.17,0,0,0-5.75-11.51l-3.58-5.38c-1.18-1.8-2.4-3.57-3.56-5.39h0a.53.53,0,0,1,0-.41.62.62,0,0,1,.3-.3,2.66,2.66,0,0,1,.79-.23,2.59,2.59,0,0,0,.78-.22.61.61,0,0,0,.28-.29.53.53,0,0,0,0-.39h0a.56.56,0,0,0,0-.38,3,3,0,0,0-.18-.36,5.52,5.52,0,0,0-.43-.68h0c-.15-.23-.48-.32-.73-.44s-.55-.22-.82-.32a10.53,10.53,0,0,1-1.63-.67h0l-.15-.2h0Z" transform="translate(-677.75 -247.41)"/>
    </g>
    <g>
      <path class="cls-1" d="M1001.66,418.62a8.74,8.74,0,0,1-.62-1.27,4.57,4.57,0,0,0-.61-1.18V415a2.93,2.93,0,0,1,.21-.62c.13-.33.28-.71.46-1.12a11.62,11.62,0,0,0,.4-1.17,4,4,0,0,0,.16-.67,11.39,11.39,0,0,0-1.23-.61,2.34,2.34,0,0,0-.71-.25.81.81,0,0,1-.51-.31,2.83,2.83,0,0,1-.41-.77c-.14-.34-.34-.95-.62-1.84-.4-1.22-.88-2.69-1.42-4.39s-1.11-3.35-1.69-4.95-1.14-3.08-1.68-4.44a15.51,15.51,0,0,0-1.33-2.76,3.57,3.57,0,0,1-1.23-.46,3.09,3.09,0,0,1-1.12-.77,1.55,1.55,0,0,1-.1-.4,25.37,25.37,0,0,1,.71-6,53,53,0,0,1,1.84-6q1.13-3,2.4-5.87c.85-1.9,1.62-3.78,2.3-5.62.88-2.11,1.55-3.81,2-5.1a8.5,8.5,0,0,1,1.68-3.06,5.37,5.37,0,0,1,2.91-1.54,29.18,29.18,0,0,1,5.67-.41,5.82,5.82,0,0,1-.71,3,5.46,5.46,0,0,0-.72,2.91v.61a13.31,13.31,0,0,0,3.47,1.07,12.26,12.26,0,0,0,2.56.05l2.86-.2a25.5,25.5,0,0,1,4.29.2,10.49,10.49,0,0,1,1.68.36c.92.24,1.93.53,3,.87s2.11.63,3.06.87a9.76,9.76,0,0,0,1.84.35l2.35.36c1.09.17,2.28.31,3.57.41s2.5.19,3.63.26,1.92.1,2.4.1a6.55,6.55,0,0,0,1.89,2.7,7.63,7.63,0,0,0,2.6,1.43,12.38,12.38,0,0,0,3.07.57c1.08.07,2.14.1,3.16.1a72.91,72.91,0,0,0,8.53.1q3.72-.19,7.1-.2t6.89.25a58.14,58.14,0,0,1,7.41,1.08,3.11,3.11,0,0,1,1.22.61,3.07,3.07,0,0,0,1.23.61,27.33,27.33,0,0,0,4.54-.41c1.6-.27,3.23-.58,4.9-.92s3.34-.64,5-.92a31,31,0,0,1,5-.41,3,3,0,0,1-1.38,2.61,11.79,11.79,0,0,1-3.42,1.58,20.31,20.31,0,0,1-4.49.77c-1.64.1-3.17.15-4.6.15s-2.69,0-3.78-.05l-1.83-.05c-.89,0-1.47-.22-1.74-.67a1.78,1.78,0,0,0-1.64-.66,29.25,29.25,0,0,0-8.63,1.33,30.15,30.15,0,0,1-8.83,1.33,28.67,28.67,0,0,1-6-.62l-5.72-1.22-5.77-1.23a28.26,28.26,0,0,0-5.87-.61,7.7,7.7,0,0,0-4.39,1.38,37.76,37.76,0,0,0-3.93,3.06,44,44,0,0,1-3.83,3.07,7.33,7.33,0,0,1-4.29,1.38,9.55,9.55,0,0,0-.41-3c-.27-.81-1.06-1.22-2.35-1.22-1.5,0-2.5.3-3,.92a9.24,9.24,0,0,0-1.33,2.14,6.51,6.51,0,0,1-1.58,2.15,5.4,5.4,0,0,1-3.58.92v-3.48a9.12,9.12,0,0,0-6.23,2.05,7,7,0,0,0-2.35,5.51,23.69,23.69,0,0,0,.31,3.42,18.78,18.78,0,0,0,1,3.83,10.59,10.59,0,0,0,1.89,3.17,3.64,3.64,0,0,0,2.81,1.33c1.7,0,2.71-.26,3-.77a14,14,0,0,0,.87-1.69,4.17,4.17,0,0,1,2-1.73q1.59-.81,6.18-.92h33.6c.27,0,1.11-.07,2.5-.2s2.93-.28,4.6-.41,3.2-.27,4.6-.41,2.26-.21,2.6-.21h1.23a6.09,6.09,0,0,1,.81.21c.48.14,1,.27,1.54.41s1,.27,1.53.41a4.8,4.8,0,0,0,.92.2l4,.36c1.94.17,4,.3,6.13.41l6.13.3c1.94.1,3.28.15,4,.15a2.93,2.93,0,0,1,.72,1.18q.4,1,.51,1.17v1.23a2.88,2.88,0,0,1-.51.61,1.85,1.85,0,0,1-.72.51q-11.24-.19-23.18-.1T1049.56,403a7.22,7.22,0,0,1-3,1.12,31.68,31.68,0,0,0-4,1.08,8.43,8.43,0,0,0-3.22,1.83,2.86,2.86,0,0,0-.51,3.22c-1.84,1.23-3.49,2.38-4.95,3.47a37.38,37.38,0,0,1-4.34,2.81,32,32,0,0,1-4.49,2,22.25,22.25,0,0,1-5.42,1.18,5.29,5.29,0,0,0,1.89,5.21,14.07,14.07,0,0,0,5.52,2.45,30,30,0,0,0,6.58.71h5.21c1,0,2.62,0,4.8.1s4.63.11,7.36.11h17.36q4.19,0,7.51-.11c2.21-.06,3.82-.1,4.85-.1l6,1.23a8,8,0,0,1,.1.92,8.35,8.35,0,0,1-.2,1.63,1.09,1.09,0,0,1-1.12,1h-65.88a4.69,4.69,0,0,1-3.47-1.43,17.33,17.33,0,0,1-2.66-3.52c-.81-1.4-1.6-2.84-2.35-4.34a20.83,20.83,0,0,0-2.45-3.88,5.92,5.92,0,0,0-3-2.1C1004.65,417.35,1003.29,417.67,1001.66,418.62Z" transform="translate(-677.75 -247.41)"/>
      <path class="cls-1" d="M1001.66,418.62l-.6-1.23a6,6,0,0,0-.63-1.21h0c0-.41,0-.83,0-1.25s.27-.79.43-1.18a11.72,11.72,0,0,0,.44-1.17,8.22,8.22,0,0,0,.34-1.2v0l-1.3-.64a2.35,2.35,0,0,0-.68-.22.93.93,0,0,1-.58-.44,5.67,5.67,0,0,1-.56-1.35l-.46-1.37c-.61-1.84-1.19-3.69-1.83-5.51s-1.23-3.67-2-5.47A32.83,32.83,0,0,0,992,391.1l.08,0a2.34,2.34,0,0,1-.68-.19l-.62-.29c-.2-.1-.4-.21-.59-.33a1.75,1.75,0,0,1-.54-.45v0h0c-.32-3.67.69-7.22,1.77-10.64.55-1.72,1.28-3.37,2-5.05l2-5c1.4-3.32,2.58-6.68,4-10a6,6,0,0,1,1.76-2.15,6.56,6.56,0,0,1,2.57-1,33,33,0,0,1,5.42-.37h.23v.22a7.31,7.31,0,0,1-.19,1.74,5.48,5.48,0,0,1-.67,1.61,4.79,4.79,0,0,0-.48,1.53,10.11,10.11,0,0,0-.07,1.66l-.15-.23a14.38,14.38,0,0,0,3.12,1,13.23,13.23,0,0,0,3.27.05c1.12-.06,2.21-.19,3.36-.19a31.41,31.41,0,0,1,3.36.22h0a15.51,15.51,0,0,1,2.48.58l2.39.68,2.38.67a13.06,13.06,0,0,0,2.35.51h0c1,.13,2,.32,3,.42l3,.33,3,.21c1,.08,2,.09,3,.14h.19l.07.17a6.79,6.79,0,0,0,1.35,2.16,7.1,7.1,0,0,0,2.08,1.46,12.29,12.29,0,0,0,5.09.93c1.77,0,3.56.17,5.32.21s3.54,0,5.3-.06c3.56-.09,7.12-.3,10.68-.07,1.78.07,3.57.08,5.35.32s3.53.51,5.28.86h-.06a2,2,0,0,1,.8.29c.22.12.42.25.62.38s.38.25.57.36a1.35,1.35,0,0,0,.49.19,25.54,25.54,0,0,0,2.76-.16c1.82-.21,3.65-.64,5.48-1l5.51-1a30.23,30.23,0,0,1,5.62-.54h.34v.35a3.38,3.38,0,0,1-1.19,2.64,9.85,9.85,0,0,1-2.43,1.39,18.14,18.14,0,0,1-5.32,1.23c-1.81.12-3.6.15-5.4.22s-3.61,0-5.38-.1a3.53,3.53,0,0,1-1.47-.23,1.58,1.58,0,0,1-.67-.54.86.86,0,0,0-.36-.35,5.78,5.78,0,0,0-2.44-.16,29,29,0,0,0-5.25.77c-.86.21-1.69.47-2.57.72s-1.76.46-2.65.62a30.53,30.53,0,0,1-10.84.07c-1.78-.35-3.52-.74-5.28-1.11l-5.26-1.12a38.21,38.21,0,0,0-5.24-.88,23.42,23.42,0,0,0-2.64-.08,6.77,6.77,0,0,0-2.46.55,10.62,10.62,0,0,0-2.22,1.33c-.72.52-1.42,1.06-2.1,1.63-1.31,1.17-2.79,2.28-4.18,3.42a7.8,7.8,0,0,1-5.17,2h-.44v-.43a9.71,9.71,0,0,0-.21-2.16,3.2,3.2,0,0,0-.3-.92,1.19,1.19,0,0,0-.65-.5,4.9,4.9,0,0,0-2-.12,2.76,2.76,0,0,0-1.76.68,9,9,0,0,0-1.16,1.79,7.13,7.13,0,0,1-1.26,2,4.7,4.7,0,0,1-.92.84,4.08,4.08,0,0,1-1.16.5,8.69,8.69,0,0,1-2.36.27H1012v-3.93l.46.46a9.16,9.16,0,0,0-5.38,1.51,6.31,6.31,0,0,0-2.68,4.67,14.65,14.65,0,0,0,.07,2.88,24.73,24.73,0,0,0,.49,2.88,12.18,12.18,0,0,0,2.41,5.15,3.2,3.2,0,0,0,2.21,1.25,6.45,6.45,0,0,0,2.67-.31,1,1,0,0,0,.19-.13s.06-.05.12-.19l.33-.64c.25-.43.38-.83.75-1.38a4.44,4.44,0,0,1,1.26-1.09c.22-.14.45-.27.68-.39a6.89,6.89,0,0,1,.77-.31,23.75,23.75,0,0,1,6.06-.66h6l23.86,0h3c1,0,2-.14,2.93-.21l5.94-.52c2-.17,4-.36,6-.48a5,5,0,0,1,1.55.13l1.48.39c.93.24,2,.54,2.78.71h0c1.69.14,3.38.32,5.07.43l5.06.34,5.09.26,5.06.21h.15l.09.06a2.17,2.17,0,0,1,.54.67c.11.22.21.43.3.64l.52,1.2.05.11v1.41l-.05.08a2.53,2.53,0,0,1-.31.44l-.31.32a2.31,2.31,0,0,1-.85.58l-.06,0h-.08l-23.35-.12q-11.65.09-23.27,1.3l.18-.08a8.67,8.67,0,0,1-3.55,1.28,34.86,34.86,0,0,0-3.47.94,8.43,8.43,0,0,0-3,1.67,2.15,2.15,0,0,0-.77,1.33,3.54,3.54,0,0,0,.22,1.62l.09.26-.23.16-4.44,3.1a43.73,43.73,0,0,1-4.56,3,34.07,34.07,0,0,1-5,2.29,22.66,22.66,0,0,1-5.37,1.14l.29-.29a5.66,5.66,0,0,0,.67,3.74,7.69,7.69,0,0,0,3.06,2.38,21.66,21.66,0,0,0,7.82,1.82c2.69.16,5.45,0,8.18.1l8.21.15c5.46.09,10.93,0,16.4.06q4.11,0,8.2-.05l8.21-.13h0l6,1.23.19,0,0,.18a4.75,4.75,0,0,1,0,1.55l-.09.76a2.51,2.51,0,0,1-.19.8,1.29,1.29,0,0,1-.65.65,2,2,0,0,1-.84.11h-7.49l-12,0-24-.07-12,0-6,0h-3a7.53,7.53,0,0,1-3-.33,6,6,0,0,1-2.37-1.84,18.37,18.37,0,0,1-1.75-2.44c-1-1.74-1.92-3.51-2.85-5.28a22.87,22.87,0,0,0-1.56-2.55,8.78,8.78,0,0,0-2-2.17,4.05,4.05,0,0,0-2.81-.81A7.56,7.56,0,0,0,1001.66,418.62Zm0,0a7.71,7.71,0,0,1,2.78-1.06,4,4,0,0,1,2.83.81,8.47,8.47,0,0,1,2.06,2.16,21.63,21.63,0,0,1,1.58,2.55c.94,1.76,1.89,3.52,2.88,5.26a17.19,17.19,0,0,0,1.76,2.4,5.74,5.74,0,0,0,2.32,1.8,7.56,7.56,0,0,0,2.93.3h3l6,0,12,0,24-.07,12,0h7.49c.52,0,.84-.08,1-.47a6.31,6.31,0,0,0,.23-1.38,4,4,0,0,0,0-1.43l.21.22-6-1.22h.06l-8.2.16q-4.11.07-8.21.06c-5.47,0-10.94.06-16.41,0l-8.2-.13c-2.74-.06-5.45.07-8.22-.08a31.48,31.48,0,0,1-4.11-.56,16.46,16.46,0,0,1-4-1.32,12.56,12.56,0,0,1-1.8-1.07,5.61,5.61,0,0,1-1.53-1.54,6.3,6.3,0,0,1-.77-4.17l0-.27.27,0a21.89,21.89,0,0,0,5.21-1.11,33.67,33.67,0,0,0,4.88-2.25,42.51,42.51,0,0,0,4.49-3l4.46-3.13-.14.42a4.29,4.29,0,0,1-.26-2,2.87,2.87,0,0,1,1-1.76,9,9,0,0,1,3.3-1.83,35.77,35.77,0,0,1,3.55-1,8.06,8.06,0,0,0,3.25-1.14l.09-.07h.1c7.75-.83,15.55-1.27,23.35-1.35l23.37.08-.14,0a1.75,1.75,0,0,0,.52-.39l.27-.28a1.36,1.36,0,0,0,.19-.25l0,.19v-1.23l0,.19-.55-1.24a5,5,0,0,0-.27-.57,1.16,1.16,0,0,0-.27-.37l.24.07-5.11-.2-5.08-.25-5.1-.34c-1.7-.1-3.38-.28-5.07-.42h0c-1.18-.21-2-.49-3-.74a8,8,0,0,0-2.8-.48c-1.95.12-3.91.31-5.91.49l-5.93.54c-1,.07-2,.19-3,.21h-3l-23.86,0h-6a23.31,23.31,0,0,0-5.77.6,5,5,0,0,0-2.22,1.44c-.2.26-.43.81-.67,1.24l-.35.69a1.65,1.65,0,0,1-.3.41,2.1,2.1,0,0,1-.43.28,4.73,4.73,0,0,1-1.62.39,10.33,10.33,0,0,1-1.58,0,4.28,4.28,0,0,1-2.85-1.59,13.16,13.16,0,0,1-2.6-5.56,23.76,23.76,0,0,1-.5-3,14.94,14.94,0,0,1-.06-3.07,7.18,7.18,0,0,1,3.07-5.34,10.07,10.07,0,0,1,5.92-1.66h.46v3.93l-.46-.46c1.46,0,2.93-.16,3.77-1.3a6.47,6.47,0,0,0,1.13-1.8,9.41,9.41,0,0,1,1.29-2,3.6,3.6,0,0,1,2.34-1,5.81,5.81,0,0,1,2.43.18,2.15,2.15,0,0,1,1.1.86,4.12,4.12,0,0,1,.41,1.21,11.6,11.6,0,0,1,.23,2.34l-.44-.44a6.9,6.9,0,0,0,4.65-1.79c1.39-1.13,2.79-2.16,4.16-3.37.69-.58,1.41-1.14,2.15-1.67a11.71,11.71,0,0,1,2.38-1.42,8,8,0,0,1,2.76-.61,25,25,0,0,1,2.74.1,37.91,37.91,0,0,1,5.34.9l5.26,1.13c1.75.37,3.52.77,5.25,1.11a28.31,28.31,0,0,0,5.28.45,29.22,29.22,0,0,0,5.28-.49q1.3-.24,2.58-.6c.84-.24,1.73-.52,2.61-.72a30.36,30.36,0,0,1,5.38-.79c.45,0,.91,0,1.36,0a2.92,2.92,0,0,1,1.49.29,1.67,1.67,0,0,1,.6.58.81.81,0,0,0,.36.29,3.07,3.07,0,0,0,1.17.17c1.81.06,3.59.07,5.38.1s3.57-.08,5.34-.19a17.85,17.85,0,0,0,5.11-1.18,9.09,9.09,0,0,0,2.24-1.27,2.67,2.67,0,0,0,1-2.1l.35.35a30.84,30.84,0,0,0-5.5.51l-5.5,1c-1.84.32-3.66.74-5.54,1a26.69,26.69,0,0,1-2.83.16,1.79,1.79,0,0,1-.81-.28c-.22-.12-.42-.25-.62-.38s-.38-.25-.57-.36a1.86,1.86,0,0,0-.48-.21H1083a52.44,52.44,0,0,0-10.52-1.2c-3.54-.23-7.08,0-10.63.05-1.78.09-3.57.11-5.35.05s-3.55-.18-5.33-.22a12.76,12.76,0,0,1-5.31-1,7,7,0,0,1-3.71-3.92l.27.17c-1-.05-2-.07-3-.14l-3-.22-3-.34c-1-.11-2-.3-3-.44h0a13.54,13.54,0,0,1-2.49-.54l-2.4-.68-2.37-.68a15.8,15.8,0,0,0-2.34-.56h0c-1.1-.12-2.21-.22-3.31-.23s-2.2.13-3.31.19a13.84,13.84,0,0,1-3.4-.06,14.8,14.8,0,0,1-3.22-1.05l-.15-.07v-.16a11.25,11.25,0,0,1,.08-1.73,5.33,5.33,0,0,1,.54-1.68,5,5,0,0,0,.65-1.5,7.9,7.9,0,0,0,.18-1.63l.22.23a31.66,31.66,0,0,0-5.34.33,6.2,6.2,0,0,0-2.42.93,5.52,5.52,0,0,0-1.64,2,23.53,23.53,0,0,0-1,2.46l-1,2.52c-.65,1.68-1.35,3.34-2,5l-2.06,5c-.68,1.67-1.41,3.31-2,5a44.27,44.27,0,0,0-1.43,5.19,24,24,0,0,0-.39,2.66c0,.44-.07.89-.08,1.34a3.49,3.49,0,0,0,.07,1.3v0a1.93,1.93,0,0,0,.48.4,6.55,6.55,0,0,0,.58.32l.6.29a2.11,2.11,0,0,0,.61.18h.05l0,0a31,31,0,0,1,2.29,5.34c.71,1.8,1.3,3.65,1.93,5.48s1.19,3.68,1.79,5.52l.46,1.38a5.31,5.31,0,0,0,.54,1.33c.22.48.81.4,1.23.65l1.3.65h0a7,7,0,0,1-.35,1.21,11.72,11.72,0,0,1-.44,1.17c-.17.39-.31.78-.44,1.17s0,.84,0,1.25h0a5.87,5.87,0,0,1,.63,1.22Z" transform="translate(-677.75 -247.41)"/>
    </g>
    <g>
      <path class="cls-1" d="M1096.89,458.39a1.64,1.64,0,0,1,.71-.95c.36-.24.72-.49,1.09-.77a2.44,2.44,0,0,0,.76-1.48,14.26,14.26,0,0,0,.71-3.32c.18-1.5.3-3.06.38-4.68s.14-3.16.22-4.62a26.17,26.17,0,0,1,.32-3.37c.22-1.66.56-3.61,1-5.87s1-4.57,1.58-7,1.18-4.76,1.8-7.05,1.18-4.34,1.68-6.16a5.36,5.36,0,0,1,.38-.65c.18-.28.4-.6.66-.95a7,7,0,0,0,.6-1,2.91,2.91,0,0,1,.32-.59,45.25,45.25,0,0,0,.82-4.86q.38-3.07.92-6.75t1.25-7.46a54.27,54.27,0,0,1,1.8-7.11,27.58,27.58,0,0,1,2.55-5.74q1.47-2.43,8.11,1-2.83-5.2-1-4.26a13.32,13.32,0,0,1,3.48,2.78,29.63,29.63,0,0,1,3.26,4.39c1,1.7,2,3.39,2.94,5.09s1.74,3.24,2.5,4.62a30.86,30.86,0,0,0,2,3.26,20.88,20.88,0,0,1,3.32,6.21c.83,2.42,1.56,4.84,2.18,7.29s1.21,4.72,1.79,6.81,1.12,6.62,1.63,13.56c1.89.08,3.46,1.72,4.73,4.92a40,40,0,0,0,3.16,6.69c.83,1.26,1.54,1.8,2.12,1.6a2.41,2.41,0,0,0,1.36-1.54,10.59,10.59,0,0,0,.65-2.78,19.09,19.09,0,0,1,.28-2l2.5-20.13c0-.24,0-.83.16-1.78s.25-2.09.44-3.43.38-2.81.59-4.39.46-3.08.71-4.5.49-2.68.71-3.79a9,9,0,0,1,.65-2.25q1.53-3.31,3.43-7.22t4.19-7.94q2.28-4,4.84-8a59.48,59.48,0,0,1,5.49-7.28,64.15,64.15,0,0,1,6.09-6,24.78,24.78,0,0,1,6.53-4.15,2.78,2.78,0,0,1,.92-.53,3.13,3.13,0,0,1,1-.3q-.23,2.13-.6,5.51t-2.77,3.2a5.76,5.76,0,0,0-4.08,1.12,24.7,24.7,0,0,1-5.5,2.85,40.19,40.19,0,0,1-3.53,9.83q-2.57,5.1-4.74,10.36t-4.24,10.78q-2.07,5.51-4.13,1.72l.54,12.08a4.08,4.08,0,0,0-.7,2.19c-.19,1.23-.35,2.57-.49,4s-.26,2.84-.33,4.15-.11,2.11-.11,2.42a22.69,22.69,0,0,1-.22,6.28,34.94,34.94,0,0,1-1.36,5.45c-.54,1.58-1.12,1.93-1.74,1.07s-.81.51-.6,4.14a3.57,3.57,0,0,1-1,2.49,9.09,9.09,0,0,1-2.29,1.78,21.36,21.36,0,0,1-2.39,1.12,9.59,9.59,0,0,1-1.2.42,3.36,3.36,0,0,1-3.7-.65,15.48,15.48,0,0,1-3.32-4.33,65.64,65.64,0,0,1-3.1-6.51q-1.52-3.68-2.83-7.41c-.87-2.48-1.66-4.75-2.39-6.81s-1-6.43-1-13.14l-13.16-19.9c-.8,3.23-1.29,4.64-1.47,4.2a7.26,7.26,0,0,0-.76-1.36,7.81,7.81,0,0,0-1.14-1.3,2.07,2.07,0,0,0-1.42-.6,23.23,23.23,0,0,0-1.14,3.67c-.25,1.19-.47,2.37-.65,3.56s-.35,2.37-.49,3.55-1.74,3.24-4.79,6.16l-.76,9.83a15.14,15.14,0,0,1,.16,4.56,19.49,19.49,0,0,1-1,4.09q-.7,2-2,.18t-1.36,4.68q-.06,6.51-.16,9.53a29.48,29.48,0,0,0,.65,6.81l.11.59c.15.32.31.63.49.95a3.43,3.43,0,0,1,.38.95.85.85,0,0,1,0,.59,3.45,3.45,0,0,1-1.09,1.48c-.58.51-1.19,1-1.85,1.54s-1.28,1.05-1.9,1.6a4.45,4.45,0,0,0-1.25,1.66c-.73,1.18-1.44,2.27-2.12,3.26a7.28,7.28,0,0,1-2.67,2.31,5.9,5.9,0,0,1-1.63.47,1,1,0,0,1-1.2-.83A3.3,3.3,0,0,1,1096.89,458.39Z" transform="translate(-677.75 -247.41)"/>
      <path class="cls-1" d="M1096.89,458.39a1.59,1.59,0,0,1,.59-.87l.86-.61a2.1,2.1,0,0,0,.75-.73,3.25,3.25,0,0,0,.35-1h0a19.49,19.49,0,0,0,.86-5.27l.21-2.67.12-2.67c0-1.79.24-3.57.41-5.35l.92-5.28c.33-1.76.77-3.5,1.14-5.24s.81-3.49,1.25-5.22c.86-3.47,1.8-6.92,2.74-10.36h0c.16-.27.31-.56.49-.81l.53-.78.47-.79c.16-.26.31-.56.47-.84l0,0a49.61,49.61,0,0,0,.85-5.14l.7-5.18c.2-1.73.55-3.44.81-5.16s.54-3.44.91-5.14a41.41,41.41,0,0,1,3.25-9.93c.2-.39.41-.78.63-1.16a2.38,2.38,0,0,1,.91-1,4.07,4.07,0,0,1,2.66-.22,20,20,0,0,1,4.89,1.9l-.22.22a20.41,20.41,0,0,1-1.71-3.77,1.21,1.21,0,0,1,0-.6.93.93,0,0,1,.11-.19.88.88,0,0,1,.2-.09.73.73,0,0,1,.34,0,6,6,0,0,1,.94.5,13.6,13.6,0,0,1,1.66,1.25,26.74,26.74,0,0,1,5,6.52c1.38,2.37,2.76,4.75,4,7.16.65,1.21,1.29,2.42,2,3.57a18.49,18.49,0,0,0,1.16,1.67,19.8,19.8,0,0,1,1.15,1.72,22.44,22.44,0,0,1,1.76,3.75c.44,1.31.81,2.63,1.21,3.94l1.18,3.95,1,4c.34,1.33.75,2.63,1,4s.44,2.72.6,4.08c.32,2.73.55,5.46.75,8.19l-.27-.26a4.2,4.2,0,0,1,2.86,1.44,10.38,10.38,0,0,1,1.7,2.63c.83,1.9,1.53,3.79,2.44,5.6a16,16,0,0,0,1.51,2.58,3,3,0,0,0,1,.91.53.53,0,0,0,.49,0,1.39,1.39,0,0,0,.5-.37,6,6,0,0,0,1-2.66c.16-1,.27-2,.42-3v0l2.47-20.14v.05c.13-1.76.36-3.43.57-5.13l.69-5.06c.28-1.69.5-3.38.82-5.06l.46-2.51a10.85,10.85,0,0,1,.73-2.57v0l2.77-5.86c.44-1,.93-1.94,1.45-2.9l1.51-2.87c1.91-3.89,4.3-7.51,6.5-11.24a60.13,60.13,0,0,1,8.06-10.22,57.64,57.64,0,0,1,4.81-4.42,24.47,24.47,0,0,1,5.64-3.4l-.17.12a2.05,2.05,0,0,1,.57-.41l.53-.25c.17-.07.35-.14.54-.2a2.34,2.34,0,0,1,.68-.13l.55,0-.06.56-.56,5.19a6.15,6.15,0,0,1-.77,2.7,2.53,2.53,0,0,1-1.17,1,3.09,3.09,0,0,1-1.5.21,5.73,5.73,0,0,0-2.37.31,5.21,5.21,0,0,0-1,.54c-.3.22-.71.54-1.08.76a31.14,31.14,0,0,1-4.76,2.31l.28-.34a40.08,40.08,0,0,1-3.39,9.53c-1.51,3-2.92,6-4.23,9.06s-2.48,6.2-3.73,9.3c-.64,1.55-1.16,3.1-1.91,4.68a6.85,6.85,0,0,1-.71,1.13,2.13,2.13,0,0,1-1.27.83,1.76,1.76,0,0,1-1.44-.63,6.15,6.15,0,0,1-.77-1.11l.74-.21.53,12.08v.2l-.14.11a1.42,1.42,0,0,0-.27.53,6.17,6.17,0,0,0-.19.74c-.11.51-.16,1.05-.23,1.59l-.39,3.2-.26,3.23c-.11,1.07-.12,2.14-.18,3.21v0a23.62,23.62,0,0,1-.42,7.36c-.24,1.2-.53,2.39-.89,3.57a13,13,0,0,1-.65,1.76,1.76,1.76,0,0,1-.72.84.78.78,0,0,1-.73,0,1.41,1.41,0,0,1-.44-.39,2.31,2.31,0,0,0-.18-.22h.11l.06,0a.39.39,0,0,0,0,.1,3.84,3.84,0,0,0-.12.82c0,.59,0,1.19,0,1.79l0,.91a4.4,4.4,0,0,1,0,1,3.78,3.78,0,0,1-.71,1.83,8.4,8.4,0,0,1-2.93,2.35,23.09,23.09,0,0,1-3.5,1.45l.12,0a3.54,3.54,0,0,1-3,0,7.3,7.3,0,0,1-2.23-1.88,23.56,23.56,0,0,1-3-4.81q-1.28-2.54-2.33-5.15l-2-5.28c-.68-1.75-1.29-3.52-1.91-5.3l-.92-2.65a13.73,13.73,0,0,1-.75-2.76,73.39,73.39,0,0,1-.5-11.28l0,.12-13.13-19.92.32-.05c-.19.77-.39,1.54-.61,2.31-.11.38-.22.76-.35,1.14-.07.19-.14.38-.23.57a.93.93,0,0,1-.19.3.27.27,0,0,1-.17.08.22.22,0,0,1-.2-.11.74.74,0,0,1-.08-.16,8,8,0,0,0-1.26-1.95,2.6,2.6,0,0,0-1.87-1.12l.15-.1a20.87,20.87,0,0,0-1.3,4.52c-.3,1.54-.59,3.09-.78,4.66l-.16,1.17a3.54,3.54,0,0,1-.3,1.18,9.73,9.73,0,0,1-1.33,2,39.35,39.35,0,0,1-3.26,3.45l0-.08-.77,9.83v0a15.49,15.49,0,0,1,.19,4.35,20.4,20.4,0,0,1-1,4.24,2.73,2.73,0,0,1-.53,1,.68.68,0,0,1-.55.23,1.08,1.08,0,0,1-.53-.24,5,5,0,0,1-.72-.83c-.11-.12-.25-.25-.37-.2s-.21.21-.28.36a8.7,8.7,0,0,0-.35,2.11q-.08,1.08-.09,2.16l-.16,8.68a34.58,34.58,0,0,0,.07,4.32c.13,1.44.38,2.87.65,4.29h0l.62,1.19a3.07,3.07,0,0,1,.23.64,1,1,0,0,1,0,.69h0a3.94,3.94,0,0,1-1.38,1.72l-1.7,1.42-1.69,1.42a4.5,4.5,0,0,0-1.34,1.72h0l-1.74,2.67a7.42,7.42,0,0,1-2.13,2.33,4.92,4.92,0,0,1-3,1,.93.93,0,0,1-.64-.45,5.83,5.83,0,0,1-.32-.72A3,3,0,0,1,1096.89,458.39Zm0,0a2.94,2.94,0,0,0,.25,1.54,4.36,4.36,0,0,0,.32.73.93.93,0,0,0,.63.44,5,5,0,0,0,2.94-1,7.5,7.5,0,0,0,2.11-2.34l1.73-2.67h0a4.56,4.56,0,0,1,1.34-1.74l1.69-1.43,1.7-1.42a3.94,3.94,0,0,0,1.34-1.69h0a1,1,0,0,0,0-.63,3.61,3.61,0,0,0-.24-.62l-.62-1.2h0a40.74,40.74,0,0,1-.67-4.29,33.07,33.07,0,0,1-.09-4.34l.13-8.67c0-.72,0-1.45.08-2.17a9,9,0,0,1,.36-2.16c.08-.16.14-.37.38-.46s.42.13.54.25a5,5,0,0,0,.71.8.58.58,0,0,0,.85,0,2.52,2.52,0,0,0,.48-.92,20.12,20.12,0,0,0,1-4.2,15.44,15.44,0,0,0-.19-4.29h0v0l.75-9.83v0l0,0a38.77,38.77,0,0,0,3.23-3.43,9.72,9.72,0,0,0,1.28-1.94,3.17,3.17,0,0,0,.27-1.11l.16-1.17c.19-1.57.47-3.13.76-4.68a21.32,21.32,0,0,1,1.31-4.57l0-.1h.1a2.09,2.09,0,0,1,1.21.38,6.51,6.51,0,0,1,.9.83,8.24,8.24,0,0,1,1.32,2s0,.13,0,.11,0,0-.09,0-.05,0,0,0a1,1,0,0,0,.12-.2c.08-.17.14-.35.21-.54.12-.37.24-.75.34-1.13.22-.76.41-1.53.6-2.3l.09-.38.23.33,13.19,19.88,0,.05v.07a73.22,73.22,0,0,0,.54,11.19,13.21,13.21,0,0,0,.73,2.67l.94,2.66c.63,1.77,1.24,3.55,1.93,5.29l2,5.24q1.07,2.61,2.34,5.1a22.94,22.94,0,0,0,3,4.69,7,7,0,0,0,2,1.73,3,3,0,0,0,2.48,0l.12,0a32.28,32.28,0,0,0,3.21-1.4,8,8,0,0,0,2.72-2.17,3.35,3.35,0,0,0,.59-1.54c.06-.52,0-1.18,0-1.78s0-1.22,0-1.85a4.37,4.37,0,0,1,.14-1,1,1,0,0,1,.16-.31.47.47,0,0,1,.56-.15,1.22,1.22,0,0,1,.45.42c.18.22.31.28.38.22a1.31,1.31,0,0,0,.42-.54,13,13,0,0,0,.6-1.66c.34-1.16.63-2.33.86-3.51a23,23,0,0,0,.38-7.16v0c.06-1.08.07-2.18.17-3.26l.25-3.25.38-3.23c.07-.54.12-1.08.23-1.63a8.41,8.41,0,0,1,.21-.83,2,2,0,0,1,.5-.88l-.13.31-.57-12.08-.08-1.75.83,1.54c.36.67.92,1.4,1.4,1.33s1-.86,1.37-1.54c.68-1.44,1.23-3.07,1.86-4.61,1.24-3.11,2.4-6.24,3.7-9.33s2.73-6.14,4.22-9.12a39.08,39.08,0,0,0,3.28-9.33l.05-.24.24-.1a29.7,29.7,0,0,0,4.6-2.25c.37-.23.65-.44,1-.74a5.78,5.78,0,0,1,1.26-.65,6.52,6.52,0,0,1,2.76-.38,1.69,1.69,0,0,0,1.78-.81,5.23,5.23,0,0,0,.61-2.28l.57-5.18.49.55a1.51,1.51,0,0,0-.38.08l-.46.17-.45.21a1.86,1.86,0,0,0-.31.2l-.07.08-.1,0c-3.93,1.61-7.15,4.54-10.16,7.58a58.59,58.59,0,0,0-8,10c-2.2,3.7-4.59,7.29-6.51,11.15l-1.51,2.86c-.51.94-1,1.9-1.45,2.88l-2.79,5.84v0a10,10,0,0,0-.65,2.34l-.47,2.5c-.33,1.67-.55,3.35-.83,5l-.71,5.05c-.22,1.68-.46,3.38-.59,5v0l-2.54,20.13h0v0c-.34,1.92-.24,4.13-1.62,6a2.24,2.24,0,0,1-.72.53,1.22,1.22,0,0,1-1,0,3.57,3.57,0,0,1-1.25-1.11,16.25,16.25,0,0,1-1.57-2.69c-.91-1.83-1.63-3.78-2.42-5.62a10.06,10.06,0,0,0-1.59-2.49,3.61,3.61,0,0,0-2.46-1.26h-.25l0-.25c-.2-2.73-.42-5.46-.72-8.17-.16-1.36-.33-2.72-.58-4.05s-.67-2.64-1-4l-1-4-1.16-3.93c-.39-1.31-.75-2.63-1.18-3.92a22.76,22.76,0,0,0-1.71-3.68c-.35-.58-.72-1.15-1.12-1.69a19.81,19.81,0,0,1-1.18-1.7c-.73-1.18-1.37-2.39-2-3.6-1.28-2.42-2.64-4.79-4-7.16a26.36,26.36,0,0,0-4.93-6.45,13.73,13.73,0,0,0-1.62-1.22,5.22,5.22,0,0,0-.86-.47l-.17,0s0,0,0,0a1,1,0,0,0,0,.41,20.28,20.28,0,0,0,1.66,3.7l.24.45-.46-.23a19.71,19.71,0,0,0-4.8-1.88,3.85,3.85,0,0,0-2.45.17,2.09,2.09,0,0,0-.81.9c-.22.38-.42.75-.62,1.14a41.43,41.43,0,0,0-3.26,9.85c-.38,1.7-.62,3.42-.92,5.13s-.62,3.43-.84,5.15l-.71,5.17a50.05,50.05,0,0,1-.87,5.16l0,0c-.27.52-.61,1.07-.94,1.61l-.53.77c-.18.26-.32.53-.48.79h0c-1,3.45-1.91,6.89-2.77,10.36-.45,1.72-.89,3.46-1.27,5.2s-.82,3.48-1.16,5.23l-.94,5.28c-.17,1.78-.37,3.55-.42,5.34l-.14,2.68-.22,2.67a19.63,19.63,0,0,1-.87,5.27h0a3.63,3.63,0,0,1-.36,1,2.1,2.1,0,0,1-.75.73l-.87.61A1.58,1.58,0,0,0,1096.89,458.39Z" transform="translate(-677.75 -247.41)"/>
    </g>
    <g>
      <path class="cls-1" d="M1229.26,299.18q-5.73,17.06-3.58,37.58,47.19-9.18,37.38,9.81,17.37-15.22-30-.1-22.68-17.67-15.22,53.1.92,31.47-.82,10.42-6.23,90-4.8-8.48-1.93-1.93-1.94-7.55l-3.78-26.56-1.84-18.08-38.19-10.21,42,1.74q3.78-5.72,5.62-15.22l3.78-5.62Q1221.6,306.74,1229.26,299.18Z" transform="translate(-677.75 -247.41)"/>
      <path class="cls-1" d="M1229.26,299.18a80.78,80.78,0,0,0-3.74,18.6,99.39,99.39,0,0,0,.31,19l-.18-.13c4-.79,8-1.5,12-2.05a100.91,100.91,0,0,1,12.16-1,41.63,41.63,0,0,1,6.11.32,16.63,16.63,0,0,1,5.9,1.76,6.52,6.52,0,0,1,2.3,2.13,5.82,5.82,0,0,1,.87,3,9.43,9.43,0,0,1-.51,3.08,19.71,19.71,0,0,1-1.19,2.85l-.43-.34a24.9,24.9,0,0,0,3.76-3.93c.49-.71,1-1.6.7-2.26s-1.32-.84-2.19-.9a24.83,24.83,0,0,0-5.42.39c-1.8.29-3.6.67-5.39,1.07-7.15,1.67-14.19,3.83-21.2,6.06l-.16,0-.15-.11a22.93,22.93,0,0,0-3.58-2.3,9.36,9.36,0,0,0-4-1.13,5.26,5.26,0,0,0-3.68,1.43,10.52,10.52,0,0,0-2.33,3.44,32.67,32.67,0,0,0-2.11,8.26,85.24,85.24,0,0,0-.7,8.59c-.2,5.75,0,11.52.33,17.27s.86,11.5,1.47,17.24h0v0c.14,4.57.27,9.13.33,13.7,0,1.14,0,2.28,0,3.44l0,.86,0,.45,0,.23a2,2,0,0,1-.09.35l0,0-.09.11a.38.38,0,0,1-.13.09.51.51,0,0,1-.28,0c-.28-.08-.24-.13-.29-.16a.58.58,0,0,1-.07-.11.89.89,0,0,1-.07-.18l-.07-.25-.08-.44-.11-.87c-.28-2.28-.47-4.55-.66-6.83h.93c-.54,7.89-1.1,15.77-1.74,23.65-.33,3.94-.69,7.87-1.11,11.81-.23,2-.45,3.93-.8,5.91a9.14,9.14,0,0,1-.4,1.53,1.17,1.17,0,0,1-.16.27l-.1.11-.06.05-.14,0a.56.56,0,0,1-.53-.11.92.92,0,0,1-.23-.34l-.07-.23a6.06,6.06,0,0,1-.15-.79c-.13-1-.19-2-.24-3-.33-7.92-.25-15.82-.23-23.73s.16-15.8.28-23.7l.12.29a7.4,7.4,0,0,1-1.72-3.8,22,22,0,0,1-.32-4V394l-3.14-22.28c-.24-1.86-.58-3.71-.74-5.58l-.56-5.59-1.12-11.2.25.29-38.19-10.26-2.48-.67,2.57.11,42,1.84-.16.08c3-4.54,4.58-9.84,5.65-15.14v-.05l3.8-5.6v0a58.09,58.09,0,0,1,4.44-11.16A39.34,39.34,0,0,1,1229.26,299.18Zm0,0a39.36,39.36,0,0,0-7,9.69,58.08,58.08,0,0,0-4.34,11.17h0v0l-3.76,5.63,0-.05c-1,5.33-2.6,10.68-5.58,15.3l-.06.09h-.1l-42-1.63.08-.56L1204.73,349l.22.06,0,.23,1.15,11.19.58,5.59c.16,1.87.5,3.71.75,5.57l3.19,22.26V394a21,21,0,0,0,.32,3.89,6.64,6.64,0,0,0,1.51,3.38l.12.12v.17q-.16,11.85-.22,23.7c0,7.89-.06,15.8.29,23.67,0,1,.11,2,.24,2.91a4.42,4.42,0,0,0,.13.67.34.34,0,0,0,0,.12s0,.06,0,0a.44.44,0,0,0-.37-.08l-.09.05,0,0s0,0,0,0l0,0a8.34,8.34,0,0,0,.33-1.33c.34-1.91.55-3.88.77-5.84.42-3.92.75-7.85,1.09-11.78.66-7.87,1.24-15.75,1.8-23.63h.93c.19,2.27.37,4.55.63,6.8l.12.83.07.4,0,.17s0,0,0,0l0-.07s0-.05-.25-.13a.42.42,0,0,0-.25,0,.41.41,0,0,0-.11.07l-.07.09v0c0,.08,0,0,0-.07l0-.19,0-.41,0-.84c0-1.13,0-2.27,0-3.41,0-4.56-.17-9.12-.29-13.68v0c-.6-5.75-1.1-11.51-1.42-17.28s-.51-11.56-.29-17.35c.12-2.89.32-5.78.73-8.66a33.9,33.9,0,0,1,2.19-8.46,11.13,11.13,0,0,1,2.51-3.66,5.91,5.91,0,0,1,4.17-1.6,10,10,0,0,1,4.28,1.2,23.68,23.68,0,0,1,3.68,2.39l-.31-.06c7-2.21,14.08-4.35,21.27-6,1.8-.4,3.61-.78,5.44-1.06a25.76,25.76,0,0,1,5.56-.39l.72.09c.23.06.47.11.71.19a1.74,1.74,0,0,1,1.19,2.53,7.14,7.14,0,0,1-.71,1.27,26.26,26.26,0,0,1-3.86,4l-1,.92.61-1.26a18,18,0,0,0,1.17-2.76,8.79,8.79,0,0,0,.49-2.9,5.2,5.2,0,0,0-.78-2.75,6,6,0,0,0-2.12-2,15.93,15.93,0,0,0-5.7-1.72,44.93,44.93,0,0,0-6-.34,100.44,100.44,0,0,0-12.11.94c-4,.52-8,1.2-12,2l-.16,0v-.16a99.89,99.89,0,0,1-.16-19A80.33,80.33,0,0,1,1229.26,299.18Z" transform="translate(-677.75 -247.41)"/>
    </g>
    <g>
      <path class="cls-1" d="M1455,307.22c0,.18-.76,2.84-2.28,8a37.86,37.86,0,0,0-1.66,8q-.32,3.57-.31,10,0,5.91,0,8.86c0,2,.12,4,.26,6-.61,2.66-1.11,5-1.49,7.07a38.28,38.28,0,0,0-.59,7.07,27,27,0,0,0,.59,3.78,49.74,49.74,0,0,1,.78,6q-.11,3.17.1,8.52t1.41,20.46a36.78,36.78,0,0,1-.2,5.09q-.9,10.15-.91,12.08a13.38,13.38,0,0,0,.21,2.88,2.6,2.6,0,0,0,.83,1.38q.63.54,1.34,5.9l-1.06.55a17.14,17.14,0,0,1-1.22-2.19q-1.36-3.17-3.74-10.44a27.26,27.26,0,0,0,1.87-8.24,23,23,0,0,0-1.28-6.53,26.29,26.29,0,0,1-1.39-6c-.07-1.33-.11-2.75-.11-4.26V387.7q0-4.8.11-8.58t.2-7.49q0-7.28-1.37-10c-1.18-2.48-3.45-3.71-6.82-3.71a18.33,18.33,0,0,0-2.37-.28,1.82,1.82,0,0,0-1.44.82,37.06,37.06,0,0,0-2.51,4.81,27.52,27.52,0,0,0-1.59-3.5,11,11,0,0,0-1.08-1.85c-.65,0-1.23.64-1.77,1.92q-1,3.17-1.57,4.53c-.88-2.65-1.42-4.21-1.64-4.67a1.08,1.08,0,0,0-1-.68c-.2,0-.5.32-.88,1s-.79,1-1.19,1h-9.91L1383.91,374q-3.84,0-8.49,3.56-4.74,4.82-9.45,9.34l-5.15,2.75q-3.28,2.88-3.29,10.16,0,6.47,1.82,6.46c.71,0,1.06.18,1.06.55a28.19,28.19,0,0,1-.4,4.53,91.53,91.53,0,0,0-1.26,9.61,60.89,60.89,0,0,0,.7,7.83q1.26,8.65,1.37,10.17a2.6,2.6,0,0,1-1,.82,3.28,3.28,0,0,1-1.39.27c-.2,1.1-.37,2.11-.5,3a17.44,17.44,0,0,0,.4,2.06q1.26,5.07,1.26,15.1a29.49,29.49,0,0,1-.22,4.12c-.16,1-.33,1.92-.53,2.75a22.61,22.61,0,0,1-1.57-5.36c0-.64.06-2.21.18-4.73s.17-4.61.17-6.25l-1.26-2.06q-.21,1.23-.61,14.69-1.15,38.46-2.07,59.88h-2.07q-.51-4.26-.51-4.53c.48-2.93.81-5.54,1-7.83q1.07-11,1.07-25.54a29.48,29.48,0,0,0-.86-7.15,18.63,18.63,0,0,0-.81-2.74,4.88,4.88,0,0,1,.5-1.93,12,12,0,0,0,1.27-5.35,21.7,21.7,0,0,0-.69-4.05,23.18,23.18,0,0,1-.68-5q.61-8.37.81-12.9c.57-9,.86-14.33.86-16.08a8.44,8.44,0,0,0-.73-4.18,20.71,20.71,0,0,1-1.24-2.27q-.51-8.65-.78-14.56a59.49,59.49,0,0,0-.69-7.76,4.3,4.3,0,0,0-1.89-2.81,3.32,3.32,0,0,1-1.49-3,23,23,0,0,1,1-5.36,13.79,13.79,0,0,0,.6-3.3,14.08,14.08,0,0,0-.6-3.77c-.41-1.42-.86-3-1.37-4.74a20.34,20.34,0,0,1-.2-3.3,29.51,29.51,0,0,1,.38-4.67,12.37,12.37,0,0,0,.28-2.88q-2.83-23.76-3.84-33.78a321.24,321.24,0,0,1-1.87-34.34q-1.07-4.26-1.57-6.18a70.33,70.33,0,0,1-1.52-7.28,5.42,5.42,0,0,1,.86-2.47c.58-1,1-1.51,1.42-1.51q.81,0,2.48,22a259.88,259.88,0,0,0,4,31.18q2.27,12.09,4.5,22.93t2.32,11.68q.61,6.45,1.09,11.67t1.69,5.22A89.45,89.45,0,0,1,1369.41,374a99.51,99.51,0,0,1,18.85-13.05q9.4-4.12,14.25-6.18,14.21-6.18,16.78-6.73a47.67,47.67,0,0,1,6.29.41c2.11.27,3.29.41,3.56.41,2.56-2.2,4.45-3.75,5.66-4.67q5.82-4.8,6.52-4.8c.31,0,.86.91,1.67,2.74q.77,1.65,1.26,1.65,2.79,0,4.65-20.19t4.55-20.19l1.26,1.38a9,9,0,0,0,.11,1.78A4.56,4.56,0,0,0,1455,307.22ZM1351.21,435.49h-2l-1.16-1.92v-3.44a9.2,9.2,0,0,1,3.13-4.12Z" transform="translate(-677.75 -247.41)"/>
      <g>
        <path class="cls-1" d="M1455,307.22c-.85,3.33-1.89,6.62-2.82,9.93a37.73,37.73,0,0,0-1,5.06c-.19,1.71-.25,3.43-.31,5.15-.1,3.44-.06,6.88,0,10.32,0,1.73,0,3.45.07,5.17l.23,5.15h0v0l-1.24,5.91a33.51,33.51,0,0,0-.76,6,20,20,0,0,0,0,3c.13,1,.32,2,.52,3a48.46,48.46,0,0,1,.8,6h0l.1,7.1c0,1.18.08,2.36.17,3.54l.25,3.55,1,14.18a48.24,48.24,0,0,1-.25,7.12l-.52,7.08L1451,418c0,.59,0,1.17,0,1.76a4.36,4.36,0,0,0,.34,1.64,2.54,2.54,0,0,0,.49.64,1.86,1.86,0,0,1,.5.85,15.5,15.5,0,0,1,.45,1.75c.23,1.17.4,2.35.56,3.52l0,.17-.15.08-1.06.55-.21.11-.11-.19-.84-1.51-.41-.76-.33-.79c-.43-1.06-.83-2.12-1.21-3.19-.77-2.14-1.49-4.29-2.2-6.44l0-.09,0-.08a30.36,30.36,0,0,0,1.83-7.62,23.18,23.18,0,0,0-1.47-7.66,36.17,36.17,0,0,1-1-3.88,24.46,24.46,0,0,1-.26-4c-.08-2.66,0-5.3,0-7.95s0-5.3.12-7.94.21-5.29.09-7.91a36.36,36.36,0,0,0-.35-3.92,11.31,11.31,0,0,0-1.08-3.7,5.74,5.74,0,0,0-2.68-2.56,8.94,8.94,0,0,0-3.74-.71h0l-2.33-.27c-.66,0-1.17.56-1.54,1.23-.78,1.35-1.45,2.8-2.13,4.23l-.31.66-.25-.68a29.75,29.75,0,0,0-1.83-3.93l-.53-.94-.13-.23-.07-.09,0,0h0a.3.3,0,0,0,.15.06h0a.72.72,0,0,0-.37.11,3.59,3.59,0,0,0-1.1,1.62v0l-1.57,4.56-.29.84-.3-.86-1.57-4.47a.86.86,0,0,0-.59-.64.78.78,0,0,0-.22,0c.07,0,0,0,0,.05a2,2,0,0,0-.33.4,5.89,5.89,0,0,1-.73,1,1.51,1.51,0,0,1-.62.4,1.16,1.16,0,0,1-.39.06h-9.86l.15,0-27.44,13.07-.07,0h-.08a10.5,10.5,0,0,0-4.37,1.07,20.81,20.81,0,0,0-3.9,2.43l0,0-9.45,9.35,0,0,0,0L1361,390l.07-.05a9.59,9.59,0,0,0-2.77,5.46,27.11,27.11,0,0,0-.33,6.37,12.39,12.39,0,0,0,.49,3.08c.15.47.42.92.72,1a.63.63,0,0,0,.28,0,2.45,2.45,0,0,1,.46,0,1.43,1.43,0,0,1,.53.21.77.77,0,0,1,.35.63,37.6,37.6,0,0,1-.7,6.51c-.32,2.14-.65,4.27-.87,6.4a16.88,16.88,0,0,0,0,3.18c.06,1.06.17,2.13.29,3.2l1.72,12.87,0,.14-.1.13a3,3,0,0,1-1.2,1,3.8,3.8,0,0,1-1.5.28l.4-.33-.5,3v-.06c.36,1.84.88,3.88,1.1,5.9s.4,4,.48,6.07.11,4,.1,6.07a28.91,28.91,0,0,1-.19,3.07c-.17,1-.38,2-.57,3l-.28,1.5-.53-1.45c-.48-1.31-1-2.61-1.32-4a8.47,8.47,0,0,1-.24-1.05,2.93,2.93,0,0,1,0-.58l0-.52L1357,459c.11-2.78.16-5.51.25-8.27l.06.22-1.26-2,.8-.16c-.25,3-.3,6.17-.42,9.26l-.3,9.32-.64,18.65-1.26,37.29,0,.47h-3l0-.43-.51-4.59v-.08l.69-5.37c.11-.9.24-1.79.33-2.69l.24-2.71c.29-3.61.48-7.23.61-10.85s.19-7.24.2-10.87a30.77,30.77,0,0,0-.34-5.35c-.13-.89-.32-1.73-.53-2.64a17.13,17.13,0,0,0-.76-2.54l0-.08v-.08a5.28,5.28,0,0,1,.59-2.21,13,13,0,0,0,.72-1.88,10.24,10.24,0,0,0,.41-3.95c-.17-1.34-.51-2.68-.8-4.06a21.46,21.46,0,0,1-.5-4.25h0v0c.36-6,.79-11.94,1.09-17.9l.48-8.95c0-.75.09-1.5.11-2.24a15.61,15.61,0,0,0-.14-2.17,6.6,6.6,0,0,0-.24-1,5.46,5.46,0,0,0-.44-.92l-1.1-2,0-.06v-.09l-.62-11.74-.32-5.85q-.09-1.47-.24-2.91a9.25,9.25,0,0,0-.58-2.72,3.71,3.71,0,0,0-.76-1.08,4.11,4.11,0,0,0-.5-.42,4.05,4.05,0,0,1-.63-.48,3.83,3.83,0,0,1-1.18-3,26.21,26.21,0,0,1,1.13-5.86c1.4-3.7-.55-7.46-1.46-11.22v0h0a25.86,25.86,0,0,1-.16-5c.07-1.67.43-3.34.6-4.93,0-.2,0-.4,0-.59a2.8,2.8,0,0,0,0-.55l-.14-1.23-.27-2.47-.56-4.93L1343.24,339a327.31,327.31,0,0,1-2.44-39.59v.08c-.62-2.53-1.3-5-1.88-7.58-.3-1.27-.58-2.54-.85-3.82-.13-.65-.26-1.27-.34-2a4.26,4.26,0,0,1,.5-2.05,9.18,9.18,0,0,1,1-1.75,1.68,1.68,0,0,1,1-.7.33.33,0,0,1,.17,0,.45.45,0,0,1,.21.12.63.63,0,0,1,.13.19,2.93,2.93,0,0,1,.12.28c0,.17.09.33.13.5.28,1.31.43,2.6.59,3.9.3,2.59.54,5.18.77,7.78l1.25,15.57q.7,7.77,1.88,15.48c.76,5.15,1.77,10.25,2.77,15.36l3,15.33,1.52,7.68.76,3.84.38,1.92c.08.64.12,1.29.19,1.94l.72,7.78c.12,1.3.21,2.6.4,3.87a14.07,14.07,0,0,0,.38,1.87,4.08,4.08,0,0,0,.34.85c.14.27.33.45.49.45l-.21.1a73.66,73.66,0,0,1,7.07-7.49q1.88-1.77,3.84-3.43l3.93-3.32a99,99,0,0,1,17.05-11.47h0l15.44-6.65c2.57-1.11,5.15-2.21,7.74-3.28,1.3-.53,2.6-1.06,3.91-1.56a33.6,33.6,0,0,1,4-1.36h0c1.65,0,3.31.1,5,.27l4.9.58-.08,0,6.11-5c1-.83,2-1.66,3.09-2.47.52-.4,1-.8,1.59-1.18.27-.19.54-.37.83-.54a2.47,2.47,0,0,1,.46-.23.39.39,0,0,1,.32,0,.67.67,0,0,1,.22.18,28.07,28.07,0,0,1,1.87,3.49,1.63,1.63,0,0,0,.61.68.87.87,0,0,0,.77-.34,5.32,5.32,0,0,0,.94-1.68,42.72,42.72,0,0,0,1.74-7.68c.83-5.21,1.2-10.47,1.8-15.7.31-2.62.66-5.23,1.14-7.83.24-1.29.51-2.58.88-3.85a12.09,12.09,0,0,1,.69-1.85,4.52,4.52,0,0,1,.5-.85,1.17,1.17,0,0,1,.83-.5h0l1.26,1.37h0c0,.41,0,.83,0,1.25A5.12,5.12,0,0,0,1455,307.22Zm0,0a4.31,4.31,0,0,1-.27-1.22c0-.42,0-.84,0-1.25h0l-1.26-1.37h0a1.15,1.15,0,0,0-.81.49,4.52,4.52,0,0,0-.5.85,12,12,0,0,0-.67,1.85c-.37,1.27-.64,2.56-.88,3.85-.46,2.59-.8,5.21-1.1,7.83-.58,5.23-.93,10.5-1.73,15.71a42.65,42.65,0,0,1-1.73,7.72,5.39,5.39,0,0,1-1,1.75,1,1,0,0,1-1,.38,1.71,1.71,0,0,1-.71-.75,29.79,29.79,0,0,0-1.86-3.45c-.12-.12-.18-.18-.32-.12a2.06,2.06,0,0,0-.42.21c-.28.16-.55.35-.82.54-.54.37-1.06.77-1.58,1.18-1,.8-2.06,1.63-3.07,2.47l-6.09,5,0,0h0l-4.93-.56a47.54,47.54,0,0,0-4.92-.25h0a36.89,36.89,0,0,0-4,1.36c-1.3.51-2.59,1-3.89,1.58-2.58,1.08-5.16,2.18-7.72,3.3l-15.41,6.72h0a100.66,100.66,0,0,0-16.94,11.47l-3.92,3.32c-1.29,1.11-2.57,2.25-3.81,3.42a72.6,72.6,0,0,0-7,7.45l-.09.1h-.12a1.19,1.19,0,0,1-1-.72,4.79,4.79,0,0,1-.38-1,15,15,0,0,1-.41-1.95c-.19-1.31-.28-2.6-.41-3.9l-.73-7.77c-.06-.65-.11-1.3-.19-1.94l-.38-1.91-.77-3.82-1.52-7.65-3-15.33c-1-5.11-2-10.22-2.8-15.38s-1.42-10.33-1.9-15.52l-1.28-15.57c-.23-2.59-.47-5.19-.78-7.76-.15-1.29-.31-2.59-.58-3.83,0-.15-.07-.3-.11-.44a1,1,0,0,0-.07-.17s0,0,0,0,0,0,.11.06h0c-.1,0-.36.22-.53.45a9.47,9.47,0,0,0-1,1.61,3.63,3.63,0,0,0-.43,1.7,19.05,19.05,0,0,0,.33,1.88c.26,1.27.55,2.54.84,3.8.59,2.53,1.27,5,1.9,7.57v.09A328.34,328.34,0,0,0,1344,338.9l2.25,19.69.56,4.92.29,2.46.14,1.23a4.61,4.61,0,0,1,0,.68c0,.23,0,.44,0,.65-.18,1.69-.53,3.27-.59,4.91a25.13,25.13,0,0,0,.16,4.84v0c.53,1.9,1.1,3.74,1.61,5.67a13.71,13.71,0,0,1,.38,3,13.85,13.85,0,0,1-.52,3,26.36,26.36,0,0,0-1.09,5.64,3,3,0,0,0,.91,2.34c.27.27.78.52,1.16.92a4.51,4.51,0,0,1,.93,1.32,9.86,9.86,0,0,1,.65,3c.11,1,.19,2,.25,2.94l.33,5.87.64,11.72,0-.15,1,1.92a5.92,5.92,0,0,1,.53,1.1,7.18,7.18,0,0,1,.27,1.16,15,15,0,0,1,.16,2.3c0,.76-.07,1.5-.11,2.25l-.47,9c-.29,6-.71,12-1.06,17.94v0a20.83,20.83,0,0,0,.48,4.06c.29,1.34.64,2.72.82,4.14a11,11,0,0,1-.43,4.32,12.57,12.57,0,0,1-.77,2,4.65,4.65,0,0,0-.5,1.81l0-.17a19.34,19.34,0,0,1,.8,2.68c.2.85.4,1.78.54,2.69a32.73,32.73,0,0,1,.36,5.5c0,3.63-.06,7.26-.18,10.9s-.32,7.26-.61,10.89l-.23,2.72c-.1.9-.23,1.8-.35,2.71l-.7,5.42v-.08l.5,4.47-.49-.43h2.07l-.49.47,1.32-37.28.66-18.65.31-9.32c.13-3.13.17-6.18.45-9.37l.11-1.3.69,1.14,1.27,2.06.06.11v.12c-.09,2.76-.14,5.56-.26,8.3l-.08,2.06,0,.52a2.27,2.27,0,0,0,0,.45c0,.31.13.64.21,1,.36,1.31.82,2.61,1.29,3.9l-.81.05c.19-1,.39-2,.56-2.93a26.45,26.45,0,0,0,.19-3c0-2,0-4-.09-6s-.22-4-.46-6c-.13-1-.28-2-.49-2.95s-.42-2-.61-3.05V443l.51-3,.06-.34h.34a2.37,2.37,0,0,0,2-.93l-.08.26-1.69-12.83q-.2-1.62-.3-3.24a18.19,18.19,0,0,1,0-3.3c.23-2.17.56-4.31.89-6.45a38.55,38.55,0,0,0,.7-6.35s0,0,0,0a1,1,0,0,0-.23-.08,1.79,1.79,0,0,0-.34,0,1.72,1.72,0,0,1-.51-.08,2.22,2.22,0,0,1-1.19-1.48,13,13,0,0,1-.52-3.29,27.17,27.17,0,0,1,.35-6.55,10.34,10.34,0,0,1,3-5.88l0,0,0,0,5.16-2.75-.08.06,9.45-9.33,0,0h0a22.4,22.4,0,0,1,4-2.5,11.14,11.14,0,0,1,4.66-1.13l-.15,0,27.45-13,.07,0h9.63a1.71,1.71,0,0,0,.49,0,1.11,1.11,0,0,0,.37-.24,6.23,6.23,0,0,0,.65-.93,3.93,3.93,0,0,1,.44-.52.76.76,0,0,1,.47-.21,2.35,2.35,0,0,1,.37.05,1.42,1.42,0,0,1,1,1l1.6,4.54-.59,0,1.56-4.51v0h0a4.12,4.12,0,0,1,1.36-1.92,1.41,1.41,0,0,1,.68-.19h0a.34.34,0,0,1,.18.07s.06,0,.07.06l.06.08.09.13.15.24.54,1a30.36,30.36,0,0,1,1.85,4l-.56,0c.68-1.44,1.35-2.88,2.16-4.28a3.91,3.91,0,0,1,.78-1,1.92,1.92,0,0,1,1.28-.5l2.42.28h-.05a9.66,9.66,0,0,1,4,.78,6.23,6.23,0,0,1,3,2.83,11.7,11.7,0,0,1,1.14,3.88,37.94,37.94,0,0,1,.35,4c.12,2.67-.06,5.31-.1,8s-.09,5.28-.13,7.93-.08,5.29,0,7.93a25.27,25.27,0,0,0,.24,3.91,36.73,36.73,0,0,0,1,3.81,23.62,23.62,0,0,1,1.49,7.85,31.08,31.08,0,0,1-1.87,7.76v-.16c.7,2.15,1.42,4.3,2.18,6.43.39,1.06.78,2.12,1.2,3.17l.33.78.4.73.8,1.47-.31-.08L1453,428l-.13.25c-.16-1.18-.32-2.35-.55-3.5a13.44,13.44,0,0,0-.41-1.69,1.39,1.39,0,0,0-.39-.67,2.71,2.71,0,0,1-.57-.77c-.83-2.44-.27-4.78-.16-7.15l.55-7.1a47.89,47.89,0,0,0,.28-7.07l-1-14.19-.24-3.54c-.09-1.18-.18-2.37-.16-3.55l-.07-7.12h0a48.42,48.42,0,0,0-.77-6c-.19-1-.38-2-.51-3a8.74,8.74,0,0,1-.06-1.53c0-.5,0-1,0-1.51a31.82,31.82,0,0,1,.79-6L1451,348v0l-.2-5.16c-.07-1.72,0-3.44,0-5.16,0-3.45,0-6.89.07-10.33.06-1.72.14-3.44.33-5.16a36.27,36.27,0,0,1,1-5.06C1453.1,313.83,1454.15,310.55,1455,307.22Z" transform="translate(-677.75 -247.41)"/>
        <path class="cls-1" d="M1351.21,435.49l-2,.18h-.08l-.07-.1c-.44-.6-.87-1.22-1.29-1.84l0-.06v-.11c0-1.15-.1-2.29-.12-3.43v-.09l0-.1a12.86,12.86,0,0,1,1.29-2.39,6.92,6.92,0,0,1,2-2l.75-.46V426C1351.68,429.29,1351.46,432.58,1351.21,435.49Zm0,0c-.24-3.4-.46-6.43-.48-9.48l.74.42a9.51,9.51,0,0,0-3,3.89l0-.18c0,1.14-.07,2.28-.12,3.43l-.05-.17c.35.66.71,1.33,1,2l-.16-.08Z" transform="translate(-677.75 -247.41)"/>
      </g>
    </g>
    <g>
      <path class="cls-1" d="M1462.38,409.63q.7-5.2,1.75-10.16t2.44-9.85a4.82,4.82,0,0,0,.7-1.49l.75-2.34c.27-.85.51-1.65.7-2.4a15.39,15.39,0,0,1,.53-1.74,72.38,72.38,0,0,1,3.43-6.79,52.28,52.28,0,0,1,4.94-7.3,50.63,50.63,0,0,1,6.11-6.39,18.92,18.92,0,0,1,7-4,12.51,12.51,0,0,1,3.43-.77q1.8-.15,3.66-.15h.35c.15,0,.54,0,1.16.1s1.28.15,2,.26,1.36.19,2,.25,1,.1,1.16.1h5.82a14,14,0,0,1,4.13,1q2.73,1,5.7,2.2c2,.82,3.84,1.63,5.58,2.45a22.21,22.21,0,0,1,3.55,1.94,10.64,10.64,0,0,1,3,2.3,9.06,9.06,0,0,0,3,2.2,12.48,12.48,0,0,0,3.08,1.17,10.24,10.24,0,0,1,3.09,1.28,8,8,0,0,1,3.31,2.91,21,21,0,0,1,2.21,4.29,29.45,29.45,0,0,1,1.34,4.59,20.81,20.81,0,0,1,.47,4,26.47,26.47,0,0,1-1.28,8.22,31.49,31.49,0,0,0-1.52,8v5.41a8.37,8.37,0,0,1-.69,2.35c-.39.88-.84,1.79-1.34,2.7s-1,1.83-1.57,2.71A23.37,23.37,0,0,0,1541,419a3.31,3.31,0,0,0-.35,1.43,2,2,0,0,1-.7,1.23l-1.22,1c-.66.54-1.07.88-1.22,1a1.94,1.94,0,0,1-.12.56,1.79,1.79,0,0,0-.11.46,23.71,23.71,0,0,1-1.69,2,25,25,0,0,1-1.8,1.84,1.19,1.19,0,0,1-.88.56.91.91,0,0,0-.75.67c-.55.75-1.5,1.9-2.85,3.47s-2.87,3.16-4.54,4.8a40.06,40.06,0,0,1-5.06,4.24,8,8,0,0,1-4.19,1.78h-7q-2.32-1-4.88-1.93a36.7,36.7,0,0,0-5.12-1.44c-.16,0-.56,0-1.22-.1a5,5,0,0,1-1.22-.2h-3.38a3.72,3.72,0,0,1-2.27-1.23,6,6,0,0,0-2.26-1.53c-1.48-.54-2.93-1.06-4.37-1.53a19.6,19.6,0,0,1-4.24-2,8.55,8.55,0,0,1-2.27-2.15,15.68,15.68,0,0,0-2.15-2.35c-1.63-1.63-3.22-3.15-4.77-4.54a38,38,0,0,1-4.13-4.34,19.36,19.36,0,0,1-2.85-4.85,15.91,15.91,0,0,1-1-6Zm5.41-3.47q1,.61,1.11.72a7.59,7.59,0,0,1,1.91,2.45,29.4,29.4,0,0,0,1.58,2.65,39,39,0,0,1,1.91,3.89,11,11,0,0,0,2.62,3.67l1.17,1.07,1.16,1.08a50.17,50.17,0,0,0,4,3.67,26.23,26.23,0,0,0,3.61,2.5,25.84,25.84,0,0,0,4.07,1.89c1.47.55,3.22,1.09,5.24,1.64a28.77,28.77,0,0,0,5.75.82,21,21,0,0,1,5.76,1h7.45q1.39,0,4.36-2.61a79.66,79.66,0,0,0,6.11-6c2.09-2.29,4-4.51,5.7-6.69a42.67,42.67,0,0,0,3.2-4.45,6.08,6.08,0,0,0,.64-2.91,23.56,23.56,0,0,1,.11-2.75v-.21a3.41,3.41,0,0,0-.87-2.45,3.27,3.27,0,0,1-.87-2.35,1.31,1.31,0,0,1,.52-1.17,8.23,8.23,0,0,1,1-.62,8.13,8.13,0,0,0,1-.61,1.22,1.22,0,0,0,.52-1.07,13.49,13.49,0,0,0-.23-1.84,17.29,17.29,0,0,0-.7-2.65,8.85,8.85,0,0,0-1.22-2.35,2.14,2.14,0,0,0-1.69-1h-5.58a2.92,2.92,0,0,0-1.63-.72,5.21,5.21,0,0,1-1.75-.51,3.5,3.5,0,0,1-1.22-1.23,3.55,3.55,0,0,0-1.22-1.22c-.85-.55-1.55-.95-2.09-1.23a4.1,4.1,0,0,1-1.28-.92,3.87,3.87,0,0,1-.76-1.27c-.19-.52-.41-1.18-.64-2a18.17,18.17,0,0,1-.64-2.9,18.26,18.26,0,0,0-.52-2.61,9.3,9.3,0,0,0-1-2.35,8.12,8.12,0,0,0-2.33-2.25,18.09,18.09,0,0,0-3.66-2,8.67,8.67,0,0,0-5.64-.41,10.84,10.84,0,0,0-1.4.36c-1.63.34-3.14.68-4.54,1a32,32,0,0,0-4,1.23,30.3,30.3,0,0,0-3.61,1.68,39.44,39.44,0,0,0-3.72,2.4,19.25,19.25,0,0,0-1.69,1.69,8.94,8.94,0,0,1-1.8,1.58c-1.4,1-2.73,2.1-4,3.22a15.8,15.8,0,0,0-3.2,3.83,7.84,7.84,0,0,0-.53,1.27c-.19.58-.42,1.18-.69,1.79s-.55,1.18-.82,1.69a2.52,2.52,0,0,1-.75,1c-.47.13-.7.24-.7.3a15.36,15.36,0,0,0-.87,1.54q-.53,1-1,2.19c-.35.79-.66,1.53-.93,2.25a11.2,11.2,0,0,0-.53,1.69,3.05,3.05,0,0,1-.23.66,8.16,8.16,0,0,0-.4,1.33c-.12.51-.22,1-.3,1.48a5.28,5.28,0,0,1-.23,1v.1Q1466.8,405.55,1467.79,406.16Z" transform="translate(-677.75 -247.41)"/>
      <g>
        <path class="cls-1" d="M1462.38,409.63l1.71-10.08,2.44-9.94h0a8.48,8.48,0,0,0,1-2.34c.26-.82.53-1.63.75-2.45a26.79,26.79,0,0,1,1.69-4.85,74.81,74.81,0,0,1,5-9,53.3,53.3,0,0,1,6.52-7.93,33.87,33.87,0,0,1,3.87-3.4,18.35,18.35,0,0,1,4.55-2.45,22.87,22.87,0,0,1,2.47-.78,12.57,12.57,0,0,1,2.58-.33l2.58-.12a7,7,0,0,1,1.29,0c.44,0,.87.08,1.29.14a46.71,46.71,0,0,0,5.07.49l5.13,0a10.19,10.19,0,0,1,2.61.45,22,22,0,0,1,2.45.83l4.82,1.82,4.72,2a26.47,26.47,0,0,1,4.63,2.4l-.06,0a11,11,0,0,1,2.93,2.2,8.68,8.68,0,0,0,2.63,2.09,13.46,13.46,0,0,0,3.18,1.27,10.74,10.74,0,0,1,3.39,1.37l0,0a8.82,8.82,0,0,1,3.81,3.54,21.92,21.92,0,0,1,2.22,4.6,29,29,0,0,1,1.29,4.92,20.37,20.37,0,0,1,.25,5.11,26.12,26.12,0,0,1-.83,5c-.22.82-.5,1.63-.73,2.41s-.43,1.59-.6,2.39a28.92,28.92,0,0,0-.6,4.88V409a10.38,10.38,0,0,1-1.23,3.47l-.8,1.61c-.29.53-.6,1-.89,1.55-.62,1-1.18,2.06-1.73,3.08a3.67,3.67,0,0,0-.59,1.5l0,.18v.1a1,1,0,0,1,0,.17,1.55,1.55,0,0,1-.2.56,3.59,3.59,0,0,1-.61.8h0l-2.44,2,.14-.31c0,.21-.08.42-.13.63l0,.21-.06.18-.08.24-1.7,2-1.87,1.89.07-.07a1.59,1.59,0,0,1-1.15.72c-.21,0-.34.14-.45.42l0,.06,0,0-2.35,2.84c-.77,1-1.67,1.79-2.5,2.7l-2.54,2.65c-.88.87-1.79,1.69-2.74,2.47a35.61,35.61,0,0,1-3,2.2,8.65,8.65,0,0,1-3.46,1.45c-2.5,0-4.9,0-7.36,0h0l0,0-4.9-2a35.09,35.09,0,0,0-5-1.44h0l-1.25-.11-.61-.07a3.27,3.27,0,0,1-.64-.15h.06l-3.38,0h0a4,4,0,0,1-2.49-1.43,5.85,5.85,0,0,0-2.37-1.47c-1.79-.65-3.59-1.25-5.37-1.94a20.51,20.51,0,0,1-2.55-1.32,8.58,8.58,0,0,1-2.2-1.82,27.91,27.91,0,0,0-1.83-2.19c-.68-.67-1.39-1.31-2.07-2-2.7-2.68-5.68-5.11-8-8.17a18.56,18.56,0,0,1-2.69-5A16.82,16.82,0,0,1,1462.38,409.63Zm0,0a17,17,0,0,0,.82,5.63,18.79,18.79,0,0,0,2.71,5c2.3,3.05,5.29,5.46,8,8.12.68.67,1.39,1.3,2.07,2a25.51,25.51,0,0,1,1.85,2.19,8.55,8.55,0,0,0,2.18,1.79,20.06,20.06,0,0,0,2.53,1.29c1.77.69,3.59,1.27,5.39,1.9a6.14,6.14,0,0,1,2.45,1.49,3.82,3.82,0,0,0,2.36,1.34h0l3.38,0h.06a2.75,2.75,0,0,0,.56.12l.6.07,1.22.1h0a36.22,36.22,0,0,1,5.12,1.4l4.94,1.93-.09,0c2.43,0,4.91,0,7.3-.06a8.23,8.23,0,0,0,3.22-1.4,33.87,33.87,0,0,0,2.89-2.2c.92-.78,1.82-1.59,2.67-2.46l2.5-2.66c.81-.91,1.7-1.74,2.44-2.7l2.29-2.82,0,.08a1.46,1.46,0,0,1,.37-.59,1.16,1.16,0,0,1,.7-.32.8.8,0,0,0,.59-.4v0l0-.05,1.78-1.84,1.63-2-.08.24.07-.33.07-.3a2.74,2.74,0,0,1,.09-.39l.06-.25.08-.07,2.44-2.05,0,0a3.57,3.57,0,0,0,.47-.61c.12-.21.08-.28.12-.7a4.36,4.36,0,0,1,.67-1.79c.57-1.07,1.15-2.13,1.74-3.13.29-.51.6-1,.87-1.53l.77-1.58a9.59,9.59,0,0,0,1.14-3.18v-5a29.51,29.51,0,0,1,.6-5.06c.17-.83.38-1.66.61-2.47s.51-1.6.71-2.4a25.55,25.55,0,0,0,.78-4.85,23.09,23.09,0,0,0-1.44-9.64,21.15,21.15,0,0,0-2.1-4.43,8,8,0,0,0-3.42-3.2h0a10,10,0,0,0-3.13-1.28,13.84,13.84,0,0,1-3.37-1.36,9.55,9.55,0,0,1-2.87-2.28,10,10,0,0,0-2.69-2l0,0,0,0a16.5,16.5,0,0,0-2.14-1.26q-1.12-.57-2.31-1.08l-4.67-2.08-4.76-1.87a24.35,24.35,0,0,0-2.4-.83,9.53,9.53,0,0,0-2.43-.45l-5.13,0a47.9,47.9,0,0,1-5.13-.55c-.42-.06-.84-.12-1.26-.15a5.86,5.86,0,0,0-1.26,0l-2.55.09a14.29,14.29,0,0,0-4.94,1,18.44,18.44,0,0,0-4.48,2.35,35.87,35.87,0,0,0-3.86,3.33,52.93,52.93,0,0,0-6.57,7.83,68.47,68.47,0,0,0-5.06,8.9,25.3,25.3,0,0,0-1.7,4.82c-.23.82-.5,1.63-.77,2.45a8.06,8.06,0,0,1-1,2.37v0l-2.48,9.92Z" transform="translate(-677.75 -247.41)"/>
        <path class="cls-1" d="M1467.79,406.16a10.23,10.23,0,0,1,1.54,1.09,7.84,7.84,0,0,1,1.15,1.48l1.92,3.24h0l1.35,2.7c.47.89.83,1.83,1.38,2.67a11.37,11.37,0,0,0,1.94,2.27l2.21,2h0a40.81,40.81,0,0,0,5.93,5.13,24.41,24.41,0,0,0,7.08,3.28l3.75,1.14a27.69,27.69,0,0,0,3.85.68c1.29.15,2.6.1,3.93.28a22.25,22.25,0,0,1,3.87.84h-.07l5.16,0c.83,0,1.76,0,2.52,0a5.94,5.94,0,0,0,2.16-1.11,39,39,0,0,0,3.83-3.36q1.85-1.79,3.57-3.68c1.14-1.28,2.22-2.62,3.32-3.92s2.25-2.58,3.29-3.94c.52-.68,1-1.37,1.53-2.06a10.14,10.14,0,0,0,1.27-2.1,6.81,6.81,0,0,0,.36-2.37l.1-2.63v.06a4,4,0,0,0-.19-1.41,2.8,2.8,0,0,0-.3-.6,6.08,6.08,0,0,0-.49-.58,3.65,3.65,0,0,1-.72-1.65,4.39,4.39,0,0,1-.06-.89,2,2,0,0,1,.28-1,1.74,1.74,0,0,1,.39-.42c.14-.1.24-.15.37-.23l.72-.42.65-.39a2.28,2.28,0,0,0,.54-.35.73.73,0,0,0,.17-.44,4,4,0,0,0-.08-.71c-.07-.5-.1-1-.21-1.5a15.16,15.16,0,0,0-.88-2.92,4.84,4.84,0,0,0-1.65-2.24,1.07,1.07,0,0,0-.56-.12H1527l-.13-.12a2.43,2.43,0,0,0-1.38-.6,5.9,5.9,0,0,1-1.89-.56h0a4.38,4.38,0,0,1-.91-.76,6,6,0,0,1-.63-.9,4.66,4.66,0,0,0-1.53-1.18c-.62-.35-1.15-.69-1.84-1.06a4.1,4.1,0,0,1-1.6-1.7,6.64,6.64,0,0,1-.39-1l-.33-1a20.53,20.53,0,0,1-.56-2.08c-.16-.71-.22-1.45-.33-2.12a15,15,0,0,0-.45-2,8.53,8.53,0,0,0-.81-1.86,6.07,6.07,0,0,0-1.29-1.53,17.08,17.08,0,0,0-3.46-2.27,10.11,10.11,0,0,0-3.93-1.17,6.13,6.13,0,0,0-2,.1c-.67.09-1.33.29-2,.44l0,0a62.51,62.51,0,0,0-8.29,2.11,31,31,0,0,0-7.5,4.08h0a28.76,28.76,0,0,1-3.95,3.59c-1.38,1.12-2.82,2.16-4.14,3.35a15.76,15.76,0,0,0-1.76,2c-.27.36-.52.72-.75,1.1a8.68,8.68,0,0,0-.55,1.2c-.34.82-.62,1.68-1,2.47l-.59,1.21a2.82,2.82,0,0,1-.81,1.07h0l-.37.12-.17.07a.61.61,0,0,0-.13.07h0v0c-.33.61-.71,1.2-1,1.82l-.9,1.89-.81,1.94c-.27.65-.44,1.33-.66,2h0c-.13.36-.26.73-.37,1.1s-.25.73-.32,1.12c-.15.76-.3,1.52-.48,2.27h0a.79.79,0,0,0,.35.66A4.85,4.85,0,0,0,1467.79,406.16Zm0,0a4.7,4.7,0,0,1-.64-.46.8.8,0,0,1-.35-.66h0c.18-.76.33-1.52.47-2.28.07-.38.21-.74.31-1.12s.24-.73.37-1.09h0c.22-.66.38-1.35.64-2l.8-1.94.9-1.9c.3-.63.68-1.22,1-1.84v0c0-.12.11-.11.17-.15l.18-.07.38-.12h0a6.74,6.74,0,0,0,1.35-2.24c.38-.8.65-1.64,1-2.47a9,9,0,0,1,.54-1.23q.36-.57.75-1.11a16.11,16.11,0,0,1,1.77-2c1.33-1.19,2.75-2.26,4.12-3.41a30.22,30.22,0,0,0,3.89-3.63h0a31.74,31.74,0,0,1,7.51-4.23,62.26,62.26,0,0,1,8.34-2.25l0,0c.7-.18,1.4-.4,2.13-.52a7.19,7.19,0,0,1,2.17-.12,10.58,10.58,0,0,1,4.16,1.17,17.74,17.74,0,0,1,3.65,2.32,6.51,6.51,0,0,1,1.45,1.68,9.87,9.87,0,0,1,.92,2,17.45,17.45,0,0,1,.5,2.11c.12.73.19,1.4.35,2.08a20.52,20.52,0,0,0,.56,2l.33,1a4.71,4.71,0,0,0,.35.94,3.12,3.12,0,0,0,1.28,1.34c.57.3,1.23.7,1.84,1a5.37,5.37,0,0,1,1.8,1.41,6.91,6.91,0,0,0,.58.82,3.24,3.24,0,0,0,.72.6l0,0a4.57,4.57,0,0,0,1.58.46,3.35,3.35,0,0,1,1.89.83l-.3-.12h5.54a2.11,2.11,0,0,1,1,.21,3.44,3.44,0,0,1,1.31,1.25,9.1,9.1,0,0,1,.82,1.46,16.76,16.76,0,0,1,1,3.12c.11.54.15,1.1.22,1.64a4.54,4.54,0,0,1,.07.86,1.7,1.7,0,0,1-.42,1,3,3,0,0,1-.76.53l-.72.42-.65.37-.3.18a.61.61,0,0,0-.15.17,1.89,1.89,0,0,0-.1,1.2,2.68,2.68,0,0,0,.53,1.22,5.86,5.86,0,0,1,.52.64,3.45,3.45,0,0,1,.4.82,4.94,4.94,0,0,1,.24,1.72v.05l-.11,2.52a7.4,7.4,0,0,1-.43,2.69,11.07,11.07,0,0,1-1.39,2.3q-.76,1-1.56,2.07c-2.18,2.67-4.45,5.27-6.73,7.85q-1.77,1.89-3.65,3.67a41.3,41.3,0,0,1-4,3.36,6.44,6.44,0,0,1-2.42,1.18c-1,.05-1.75,0-2.62,0l-5.16,0h0l0,0a22.38,22.38,0,0,0-3.79-.87c-1.28-.2-2.59-.16-3.91-.34a27.19,27.19,0,0,1-3.89-.73l-3.75-1.2a25.23,25.23,0,0,1-7.09-3.41,40.48,40.48,0,0,1-5.92-5.18h0l-2.21-2.05a11.55,11.55,0,0,1-1.94-2.3c-.54-.85-.9-1.8-1.37-2.69l-1.32-2.7h0l-1.9-3.25a7.9,7.9,0,0,0-1.15-1.49A10.35,10.35,0,0,0,1467.79,406.16Z" transform="translate(-677.75 -247.41)"/>
      </g>
    </g>
    <g>
      <path class="cls-1" d="M1584.72,350.51l-1.06.54q23.4-6.46,60.64,33.39-28.74-24.13-58.13-18.67-10.2,2.52-.56,17.69l-3.81,4.31c-1.94,1.61-1.81,3.17.4,4.66q-8.25-4.67-27.68,105.3,8.09-94.08,11.57-110,13.68-10.78,4-30.25c.54-1.62-.11-3.77-1.94-6.47H1576Q1579.78,333.82,1584.72,350.51Zm2.34,64.63c-1.56,0-2.45-.95-2.67-2.87q-1.62,3.42-3.8-.81h-7.45l.48,2.88a21.67,21.67,0,0,1,5.67.76q2.84.76,6.15,8.66l34.25,30.52Zm57-31.23c-3.72,2.21-6,3.53-6.88,3.95a29.44,29.44,0,0,0-3.48.53l-7.53,3.33-50.68,17.68q50.84-11.85,55.25-14.86t7.41-4.89l2.59-1.79Z" transform="translate(-677.75 -247.41)"/>
      <g>
        <path class="cls-1" d="M1584.72,350.51l-1.06.55h0a28.77,28.77,0,0,1,9-.85,37,37,0,0,1,8.83,1.86,66,66,0,0,1,16,8.26,135.49,135.49,0,0,1,14.15,11.24c4.5,4,8.71,8.34,12.87,12.7l-.37.39a101.78,101.78,0,0,0-17.42-11.83,72.45,72.45,0,0,0-9.66-4.19c-1.64-.63-3.34-1.07-5-1.56-.85-.23-1.71-.4-2.56-.6s-1.72-.38-2.59-.5a57.74,57.74,0,0,0-20.89.24,6.36,6.36,0,0,0-4,2.72,7,7,0,0,0-.42,4.89,32.25,32.25,0,0,0,4.39,9.43l.16.25-.2.22-3.8,4.31,0,0,0,0c-.69.58-1.31,1.33-1.2,2.08a3.25,3.25,0,0,0,1.58,1.93l-.44.7c-.75-.47-1.68.38-2.31,1.23a17.5,17.5,0,0,0-1.69,2.92,59.55,59.55,0,0,0-2.52,6.38c-1.48,4.35-2.72,8.79-3.89,13.24-2.32,8.91-4.32,17.91-6.22,26.93-3.79,18-7.2,36.16-10.43,54.31l-.85-.11c1.62-18.36,3.27-36.72,5.07-55.07q1.35-13.75,2.87-27.5c.51-4.58,1-9.16,1.65-13.73s1.22-9.15,2.16-13.68v-.09l.08-.06a21.56,21.56,0,0,0,5.48-6.14,18.17,18.17,0,0,0,2.4-7.84,24.86,24.86,0,0,0-.9-8.22,44.73,44.73,0,0,0-3-7.78l0-.05,0-.06a4.93,4.93,0,0,0-.27-3.31,14.84,14.84,0,0,0-1.63-3l-.12-.19h.22l7.85,0-.08.06a44.72,44.72,0,0,1,1.32-4.79,14.37,14.37,0,0,1,1-2.28c.41-.7.9-1.51,1.77-1.68a1.46,1.46,0,0,1,1.16.4,4.86,4.86,0,0,1,.82.94,13.94,13.94,0,0,1,1.15,2.2A44.11,44.11,0,0,1,1584.72,350.51Zm0,0a43.26,43.26,0,0,0-1.67-4.67,13.79,13.79,0,0,0-1.16-2.18,4.46,4.46,0,0,0-.81-.92,1.41,1.41,0,0,0-1.11-.38c-.81.16-1.29,1-1.69,1.65a14.13,14.13,0,0,0-1,2.27,47,47,0,0,0-1.28,4.79v.07H1576l-7.85,0,.1-.18a15.23,15.23,0,0,1,1.68,3.07,5.27,5.27,0,0,1,.3,3.5v-.11a44.8,44.8,0,0,1,3.08,7.81,25.07,25.07,0,0,1,1,8.35,18.45,18.45,0,0,1-2.39,8.06,22.17,22.17,0,0,1-5.59,6.3l.09-.15c-.91,4.5-1.51,9.08-2.11,13.64s-1.1,9.14-1.61,13.72q-1.5,13.74-2.78,27.51c-1.75,18.35-3.35,36.71-4.91,55.08l-.84-.12q2.39-13.62,4.93-27.22c1.71-9.06,3.46-18.12,5.38-27.15s3.95-18,6.3-26.95c1.19-4.46,2.44-8.91,4-13.29a61.81,61.81,0,0,1,2.58-6.47,19.55,19.55,0,0,1,1.78-3.05,5.71,5.71,0,0,1,1.33-1.31,2.36,2.36,0,0,1,1-.37,1.91,1.91,0,0,1,1.08.24l-.44.69a7,7,0,0,1-1.18-1,2.84,2.84,0,0,1-.74-1.5,2.44,2.44,0,0,1,.43-1.64,5.37,5.37,0,0,1,1.06-1.16l0,0,3.81-4.3,0,.47a49.05,49.05,0,0,1-2.61-4.65,22.52,22.52,0,0,1-1.85-5,7.7,7.7,0,0,1,.52-5.41,5.55,5.55,0,0,1,2-2,9,9,0,0,1,2.54-1.08,58.45,58.45,0,0,1,21.18-.18,26.14,26.14,0,0,1,2.61.51c.86.21,1.73.37,2.58.61,1.7.5,3.42.95,5.08,1.59a72.31,72.31,0,0,1,9.72,4.26,101.64,101.64,0,0,1,17.49,11.95l-.37.39c-4.14-4.37-8.35-8.67-12.79-12.72a137.21,137.21,0,0,0-14-11.33,65.88,65.88,0,0,0-15.9-8.37,36.72,36.72,0,0,0-8.79-1.92,28.71,28.71,0,0,0-8.95.77h0l0,0Z" transform="translate(-677.75 -247.41)"/>
        <path class="cls-1" d="M1587.06,415.14a2.4,2.4,0,0,1-2-.81,4.06,4.06,0,0,1-.78-2.05l.15,0a3.91,3.91,0,0,1-.79,1.2,1.16,1.16,0,0,1-1.41.25,3.3,3.3,0,0,1-1.06-1,10.12,10.12,0,0,1-.75-1.21l.14.08-7.45.1.25-.3.51,2.87-.28-.23a21.77,21.77,0,0,1,4.19.38c.35.06.69.14,1,.22a4.63,4.63,0,0,1,1.05.32,5.81,5.81,0,0,1,1.74,1.35,17.66,17.66,0,0,1,2.38,3.49c.67,1.24,1.26,2.5,1.81,3.78l-.1-.15,17.17,15.21c5.73,5.06,11.41,10.18,17.11,15.28l-.66.63-8.1-9.77-8.06-9.83Q1595.11,425.13,1587.06,415.14Zm0,0q8.25,9.58,16.51,19.32l8.26,9.73L1620,454l-.65.63c-5.72-5.07-11.46-10.12-17.14-15.24l-17.08-15.31-.07-.06,0-.09c-.52-1.27-1.08-2.53-1.72-3.74a16.94,16.94,0,0,0-2.22-3.39,5.1,5.1,0,0,0-1.5-1.22,4.62,4.62,0,0,0-.93-.29c-.33-.09-.66-.16-1-.23a20.61,20.61,0,0,0-4.07-.44h-.23l0-.23-.46-2.87-.05-.3h.3l7.45.1h.09l0,.08a11.93,11.93,0,0,0,.7,1.21,3.19,3.19,0,0,0,.95.95.94.94,0,0,0,1.17-.18,4.07,4.07,0,0,0,.78-1.13l.12-.24,0,.26a3.87,3.87,0,0,0,.68,2A2.33,2.33,0,0,0,1587.06,415.14Z" transform="translate(-677.75 -247.41)"/>
        <path class="cls-1" d="M1644.06,383.91c-2.34,1.34-4.59,2.73-6.83,4h0a14.86,14.86,0,0,0-1.72.25l-1.73.33h0l-7.49,3.41h0L1601,401l-25.32,8.9-.28-1c11.25-2.6,22.5-5.25,33.69-8.08,5.6-1.41,11.2-2.84,16.7-4.56a42.06,42.06,0,0,0,4-1.48,15.65,15.65,0,0,0,1.83-1.08l1.83-1.18c2.43-1.56,4.87-3.1,7.25-4.74h0C1641.78,386.53,1642.93,385.25,1644.06,383.91Zm0,0c-1.08,1.29-2.14,2.64-3.25,4h0c-2.34,1.7-4.74,3.3-7.13,4.93l-1.8,1.21a14.28,14.28,0,0,1-1.86,1.16,38.79,38.79,0,0,1-4.07,1.57c-5.5,1.82-11.08,3.33-16.67,4.82s-11.19,2.86-16.8,4.24l-16.86,4-.28-1,25.36-8.78,25.4-8.67h0l7.56-3.23h0l1.74-.29a14.75,14.75,0,0,1,1.77-.21h0C1639.48,386.44,1641.81,385.2,1644.06,383.91Z" transform="translate(-677.75 -247.41)"/>
      </g>
    </g>
    <g>
      <path class="cls-1" d="M1663.9,350.51l-1.05.54q23.39-6.46,60.64,33.39-28.74-24.13-58.13-18.67-10.21,2.52-.57,17.69l-3.81,4.31c-1.94,1.61-1.81,3.17.41,4.66q-8.27-4.67-27.69,105.3,8.1-94.08,11.58-110,13.68-10.78,4-30.25c.54-1.62-.11-3.77-1.94-6.47h7.85Q1659,333.82,1663.9,350.51Zm2.35,64.63c-1.57,0-2.46-.95-2.68-2.87-1.08,2.28-2.34,2-3.8-.81h-7.45l.49,2.88a21.66,21.66,0,0,1,5.66.76q2.83.76,6.16,8.66l34.25,30.52Zm57-31.23c-3.73,2.21-6,3.53-6.89,3.95a29.44,29.44,0,0,0-3.48.53l-7.53,3.33-50.68,17.68q50.83-11.85,55.26-14.86t7.41-4.89l2.59-1.79Z" transform="translate(-677.75 -247.41)"/>
      <g>
        <path class="cls-1" d="M1663.9,350.51l-1.05.55h0a28.8,28.8,0,0,1,9-.85,36.94,36.94,0,0,1,8.83,1.86,66,66,0,0,1,16,8.26,136.66,136.66,0,0,1,14.16,11.24c4.49,4,8.7,8.34,12.87,12.7l-.38.39a101.39,101.39,0,0,0-17.42-11.83,72.89,72.89,0,0,0-9.65-4.19c-1.65-.63-3.34-1.07-5-1.56-.84-.23-1.71-.4-2.56-.6s-1.71-.38-2.58-.5a57.8,57.8,0,0,0-20.9.24,6.32,6.32,0,0,0-4,2.72,7.06,7.06,0,0,0-.43,4.89,32.51,32.51,0,0,0,4.39,9.43l.16.25-.2.22-3.79,4.31,0,0,0,0c-.69.58-1.31,1.33-1.2,2.08a3.25,3.25,0,0,0,1.58,1.93l-.43.7c-.75-.47-1.69.38-2.32,1.23a17.5,17.5,0,0,0-1.69,2.92,59.55,59.55,0,0,0-2.52,6.38c-1.48,4.35-2.72,8.79-3.89,13.24-2.32,8.91-4.32,17.91-6.22,26.93-3.79,18-7.19,36.16-10.43,54.31l-.85-.11c1.62-18.36,3.27-36.72,5.07-55.07.91-9.17,1.84-18.34,2.87-27.5.52-4.58,1-9.16,1.65-13.73s1.22-9.15,2.16-13.68l0-.09.07-.06a21.56,21.56,0,0,0,5.48-6.14,18,18,0,0,0,2.4-7.84,24.85,24.85,0,0,0-.89-8.22,44.77,44.77,0,0,0-3-7.78l0-.05,0-.06a5,5,0,0,0-.26-3.31,15.38,15.38,0,0,0-1.64-3l-.12-.19h.22l7.85,0-.08.06a47.18,47.18,0,0,1,1.32-4.79,15.35,15.35,0,0,1,1-2.28c.41-.7.9-1.51,1.77-1.68a1.48,1.48,0,0,1,1.17.4,4.8,4.8,0,0,1,.81.94,12.45,12.45,0,0,1,1.15,2.2A42,42,0,0,1,1663.9,350.51Zm0,0a43.2,43.2,0,0,0-1.66-4.67,13.85,13.85,0,0,0-1.17-2.18,4.46,4.46,0,0,0-.81-.92,1.41,1.41,0,0,0-1.11-.38c-.81.16-1.29,1-1.68,1.65a14.18,14.18,0,0,0-1,2.27,44.46,44.46,0,0,0-1.27,4.79l0,.07h-.07l-7.85,0,.1-.18a15.78,15.78,0,0,1,1.69,3.07,5.27,5.27,0,0,1,.29,3.5v-.11a44.76,44.76,0,0,1,3.07,7.81,25.33,25.33,0,0,1,1,8.35,18.46,18.46,0,0,1-2.4,8.06,22.17,22.17,0,0,1-5.59,6.3l.09-.15c-.91,4.5-1.51,9.08-2.11,13.64s-1.1,9.14-1.6,13.72c-1,9.16-1.91,18.33-2.79,27.51-1.75,18.35-3.35,36.71-4.91,55.08l-.84-.12q2.38-13.62,4.93-27.22c1.71-9.06,3.46-18.12,5.38-27.15s4-18,6.3-26.95c1.19-4.46,2.45-8.91,3.95-13.29a61.81,61.81,0,0,1,2.58-6.47,19.55,19.55,0,0,1,1.78-3.05,5.91,5.91,0,0,1,1.33-1.31,2.47,2.47,0,0,1,1-.37,1.91,1.91,0,0,1,1.08.24l-.43.69a6.64,6.64,0,0,1-1.19-1,2.84,2.84,0,0,1-.74-1.5,2.44,2.44,0,0,1,.43-1.64,5.41,5.41,0,0,1,1.07-1.16l0,0,3.81-4.3,0,.47a47,47,0,0,1-2.62-4.65,22.52,22.52,0,0,1-1.85-5,7.7,7.7,0,0,1,.52-5.41,5.5,5.5,0,0,1,2-2,9,9,0,0,1,2.53-1.08,58.45,58.45,0,0,1,21.18-.18,25.6,25.6,0,0,1,2.61.51c.86.21,1.73.37,2.59.61,1.7.5,3.41.95,5.07,1.59a72.31,72.31,0,0,1,9.72,4.26,101.25,101.25,0,0,1,17.49,11.95l-.37.39c-4.13-4.37-8.35-8.67-12.79-12.72a136.13,136.13,0,0,0-14-11.33,65.69,65.69,0,0,0-15.9-8.37,36.64,36.64,0,0,0-8.78-1.92,28.66,28.66,0,0,0-9,.77h0l0,0Z" transform="translate(-677.75 -247.41)"/>
        <path class="cls-1" d="M1666.25,415.14a2.41,2.41,0,0,1-2-.81,4,4,0,0,1-.77-2.05l.14,0a4.06,4.06,0,0,1-.78,1.2,1.16,1.16,0,0,1-1.41.25,3.3,3.3,0,0,1-1.06-1,11.68,11.68,0,0,1-.76-1.21l.14.08-7.45.1.25-.3.51,2.87-.27-.23a21.74,21.74,0,0,1,4.18.38c.35.06.69.14,1,.22a4.7,4.7,0,0,1,1.06.32,5.77,5.77,0,0,1,1.73,1.35,17.66,17.66,0,0,1,2.38,3.49c.67,1.24,1.27,2.5,1.82,3.78l-.11-.15,17.17,15.21c5.74,5.06,11.41,10.18,17.11,15.28l-.66.63-8.1-9.77-8.05-9.83Q1674.29,425.13,1666.25,415.14Zm0,0q8.25,9.58,16.51,19.32l8.25,9.73,8.22,9.8-.66.63c-5.72-5.07-11.46-10.12-17.14-15.24l-17.08-15.31-.07-.06,0-.09c-.53-1.27-1.09-2.53-1.72-3.74a17,17,0,0,0-2.23-3.39,5.1,5.1,0,0,0-1.5-1.22,4.42,4.42,0,0,0-.93-.29c-.33-.09-.66-.16-1-.23a20.7,20.7,0,0,0-4.07-.44h-.24l0-.23-.46-2.87,0-.3h.3l7.45.1h.09l.05.08a9.06,9.06,0,0,0,.7,1.21,3,3,0,0,0,.94.95.93.93,0,0,0,1.17-.18,4.07,4.07,0,0,0,.78-1.13l.12-.24,0,.26a4,4,0,0,0,.68,2A2.34,2.34,0,0,0,1666.25,415.14Z" transform="translate(-677.75 -247.41)"/>
        <path class="cls-1" d="M1723.25,383.91c-2.34,1.34-4.6,2.73-6.84,4h-.05a14.86,14.86,0,0,0-1.72.25l-1.73.33h0l-7.49,3.41h0l-25.29,9-25.32,8.9-.27-1c11.25-2.6,22.49-5.25,33.68-8.08,5.6-1.41,11.2-2.84,16.7-4.56a42.06,42.06,0,0,0,4-1.48,15.76,15.76,0,0,0,1.84-1.08l1.82-1.18c2.43-1.56,4.87-3.1,7.25-4.74h0C1721,386.53,1722.12,385.25,1723.25,383.91Zm0,0c-1.09,1.29-2.15,2.64-3.26,4h0c-2.34,1.7-4.74,3.3-7.13,4.93l-1.79,1.21a15.11,15.11,0,0,1-1.87,1.16,38,38,0,0,1-4.07,1.57c-5.5,1.82-11.08,3.33-16.66,4.82s-11.2,2.86-16.81,4.24l-16.86,4-.28-1,25.37-8.78,25.4-8.67h0l7.57-3.23h0l1.74-.29a14.75,14.75,0,0,1,1.77-.21h0C1718.66,386.44,1721,385.2,1723.25,383.91Z" transform="translate(-677.75 -247.41)"/>
      </g>
    </g>
    <g>
      <path class="cls-1" d="M1730.08,408c.41-3.28.92-6.47,1.53-9.59s1.33-6.22,2.14-9.3a4.36,4.36,0,0,0,.62-1.4l.66-2.21c.24-.8.44-1.56.61-2.27s.33-1.25.46-1.64q1.13-2.79,3-6.41a50.45,50.45,0,0,1,4.34-6.89,46.73,46.73,0,0,1,5.36-6,16.46,16.46,0,0,1,6.18-3.81,10.77,10.77,0,0,1,3-.72c1.06-.09,2.13-.14,3.22-.14h.3c.14,0,.48,0,1,.09l1.73.24q.92.15,1.74.24c.54.07.88.1,1,.1h5.11a11.41,11.41,0,0,1,3.62.92q2.4.92,5,2.07c1.73.77,3.37,1.54,4.9,2.31a18.37,18.37,0,0,1,3.11,1.83,9.2,9.2,0,0,1,2.61,2.17,7.84,7.84,0,0,0,2.6,2.07,9.94,9.94,0,0,0,2.71,1.11,8.75,8.75,0,0,1,2.7,1.21,7.27,7.27,0,0,1,2.92,2.74,20.71,20.71,0,0,1,1.94,4.05,29.1,29.1,0,0,1,1.17,4.34,21,21,0,0,1,.41,3.8,26.92,26.92,0,0,1-1.12,7.76,31.56,31.56,0,0,0-1.33,7.57v5.11a8.34,8.34,0,0,1-.61,2.21c-.35.84-.74,1.69-1.18,2.56s-.9,1.72-1.38,2.55a23.16,23.16,0,0,0-1.12,2.22,3.16,3.16,0,0,0-.31,1.35,1.85,1.85,0,0,1-.61,1.15l-1.07,1c-.58.51-.94.83-1.07,1a1.91,1.91,0,0,1-.11.53,2,2,0,0,0-.1.43,20.72,20.72,0,0,1-1.48,1.93,23.22,23.22,0,0,1-1.58,1.74,1.06,1.06,0,0,1-.77.53.79.79,0,0,0-.66.62c-.48.71-1.31,1.8-2.51,3.28s-2.51,3-4,4.53a35.16,35.16,0,0,1-4.44,4,6.84,6.84,0,0,1-3.68,1.69h-6.13q-2-1-4.28-1.83a29.59,29.59,0,0,0-4.5-1.35c-.14,0-.49,0-1.07-.1a4.55,4.55,0,0,1-1.07-.19h-3a3.19,3.19,0,0,1-2-1.16,5.34,5.34,0,0,0-2-1.45c-1.29-.51-2.57-1-3.83-1.44a16.38,16.38,0,0,1-3.73-1.93,7.81,7.81,0,0,1-2-2,13.8,13.8,0,0,0-1.89-2.22q-2.14-2.31-4.18-4.29a32.65,32.65,0,0,1-3.63-4.09,18.23,18.23,0,0,1-2.5-4.58,15.89,15.89,0,0,1-.92-5.64Zm4.75-3.28c.57.39.9.61,1,.68a7,7,0,0,1,1.68,2.31,27,27,0,0,0,1.38,2.51,37.31,37.31,0,0,1,1.69,3.66,10.12,10.12,0,0,0,2.3,3.47l1,1c.54.55.88.88,1,1a45.11,45.11,0,0,0,3.47,3.47,23,23,0,0,0,3.17,2.36,22.45,22.45,0,0,0,3.57,1.79c1.29.51,2.83,1,4.6,1.54a22.9,22.9,0,0,0,5,.77,18,18,0,0,1,5.06,1h6.53q1.23,0,3.83-2.45a73.5,73.5,0,0,0,5.37-5.69c1.83-2.15,3.5-4.26,5-6.31a39.38,39.38,0,0,0,2.81-4.2,6,6,0,0,0,.56-2.74,23.68,23.68,0,0,1,.1-2.6V406a3.37,3.37,0,0,0-.76-2.31,3.24,3.24,0,0,1-.77-2.22,1.29,1.29,0,0,1,.46-1.11,7.66,7.66,0,0,1,.92-.57,7.77,7.77,0,0,0,.92-.58,1.17,1.17,0,0,0,.46-1,12.67,12.67,0,0,0-.21-1.74,16.25,16.25,0,0,0-.61-2.5,8.47,8.47,0,0,0-1.07-2.22,1.86,1.86,0,0,0-1.48-1H1787a2.37,2.37,0,0,0-1.42-.68,4.14,4.14,0,0,1-1.54-.48,3.27,3.27,0,0,1-1.07-1.16,3.25,3.25,0,0,0-1.07-1.15,20.45,20.45,0,0,0-1.84-1.16,3.82,3.82,0,0,1-1.12-.87,3.64,3.64,0,0,1-.67-1.2c-.17-.49-.35-1.11-.56-1.88a17.91,17.91,0,0,1-.56-2.75,17.9,17.9,0,0,0-.46-2.46,8.85,8.85,0,0,0-.92-2.21,7.3,7.3,0,0,0-2-2.12,15.21,15.21,0,0,0-3.22-1.88,8.43,8.43,0,0,0-3.73-.63,9,9,0,0,0-1.22.24,10.26,10.26,0,0,0-1.23.34c-1.43.32-2.76.64-4,1a28.23,28.23,0,0,0-3.47,1.16,24.07,24.07,0,0,0-3.17,1.59,33.07,33.07,0,0,0-3.27,2.26,16.9,16.9,0,0,0-1.48,1.6,8.66,8.66,0,0,1-1.58,1.49c-1.23,1-2.4,2-3.53,3a14.46,14.46,0,0,0-2.8,3.61,7.45,7.45,0,0,0-.46,1.2c-.17.55-.38,1.11-.62,1.69s-.47,1.11-.71,1.59a2.42,2.42,0,0,1-.66.92c-.41.12-.62.22-.62.28a15.8,15.8,0,0,0-.76,1.45c-.31.64-.62,1.34-.92,2.07s-.58,1.45-.82,2.12a11.18,11.18,0,0,0-.46,1.59,3.28,3.28,0,0,1-.2.63,7.56,7.56,0,0,0-.36,1.25c-.1.48-.19.95-.26,1.4a5.83,5.83,0,0,1-.2,1v.1Q1734,404.1,1734.83,404.67Z" transform="translate(-677.75 -247.41)"/>
      <g>
        <path class="cls-1" d="M1730.08,408l1.49-9.51,2.14-9.39h0a7.92,7.92,0,0,0,.85-2.22c.23-.77.46-1.54.66-2.31a25.27,25.27,0,0,1,1.49-4.58,70.74,70.74,0,0,1,4.45-8.55,48.82,48.82,0,0,1,5.89-7.63,27.7,27.7,0,0,1,3.57-3.27,15.41,15.41,0,0,1,4.3-2.27h0a11.55,11.55,0,0,1,4.41-.83c.74,0,1.49-.09,2.23-.09s1.51.14,2.24.25l2.19.29,1.07.1h1.11c1.5,0,2.93-.05,4.48,0a17.55,17.55,0,0,1,4.31,1.32l4.13,1.69,4,1.88a21.43,21.43,0,0,1,3.94,2.21l-.06,0a9.88,9.88,0,0,1,2.57,2.07,7.75,7.75,0,0,0,2.28,2,11.08,11.08,0,0,0,2.79,1.21,9.41,9.41,0,0,1,3,1.3l0,0a8.17,8.17,0,0,1,3.44,3.47,21.93,21.93,0,0,1,1.93,4.38,24.26,24.26,0,0,1,1.29,9.42,26,26,0,0,1-.74,4.72c-.42,1.56-.89,3-1.16,4.52a27.33,27.33,0,0,0-.51,4.58v4.73a10.31,10.31,0,0,1-1.07,3.27l-.71,1.52c-.24.5-.52,1-.78,1.47-.55,1-1,1.94-1.53,2.9a3.84,3.84,0,0,0-.51,1.41l0,.18a1.08,1.08,0,0,1,0,.24,1.57,1.57,0,0,1-.16.53,3.25,3.25,0,0,1-.56.77h0l-2.15,1.92.13-.3-.11.59,0,.2,0,.17-.07.23-1.49,1.92-1.65,1.79.06-.07a1.66,1.66,0,0,1-.42.46,1.32,1.32,0,0,1-.63.24c-.15,0-.26.12-.35.38l0,0,0,0c-1.35,1.75-2.67,3.53-4.19,5.14l-2.2,2.47c-.75.82-1.55,1.59-2.37,2.33s-1.69,1.43-2.59,2.09a7.85,7.85,0,0,1-3,1.46c-2.28.08-4.42,0-6.64,0h0l0,0-4.28-1.86a31.18,31.18,0,0,0-4.44-1.36h0l-1.1-.1-.54-.07a3.37,3.37,0,0,1-.57-.14h.07l-3,0h0a3.56,3.56,0,0,1-2.23-1.38,5.13,5.13,0,0,0-2.12-1.39c-1.61-.64-3.25-1.19-4.85-1.9a10.88,10.88,0,0,1-4.15-3.11,15.11,15.11,0,0,0-1.61-2l-1.82-1.86c-2.37-2.52-5-4.84-7-7.74a18,18,0,0,1-2.26-4.67A17.25,17.25,0,0,1,1730.08,408Zm0,0a17.17,17.17,0,0,0,.67,5.14,18,18,0,0,0,2.27,4.66c2,2.88,4.6,5.18,7,7.69l1.83,1.85a15.84,15.84,0,0,1,1.63,2,10.69,10.69,0,0,0,4.12,3.05c1.57.69,3.23,1.23,4.85,1.86a5.16,5.16,0,0,1,2.21,1.4,3.35,3.35,0,0,0,2.1,1.29h0l3,0h0l0,0a2.11,2.11,0,0,0,.49.1l.53.07,1.06.09h0a29.65,29.65,0,0,1,4.52,1.33l4.33,1.81-.1,0c2.18,0,4.44,0,6.55-.08a7.49,7.49,0,0,0,2.82-1.41,30.88,30.88,0,0,0,2.52-2.08c.8-.74,1.58-1.5,2.31-2.31L1787,432a64.46,64.46,0,0,0,4.08-5.12l0,.08a1.46,1.46,0,0,1,.31-.55,1,1,0,0,1,.66-.33.66.66,0,0,0,.48-.36l0,0,0,0,1.57-1.74,1.42-1.87-.07.22.2-1,0-.23.08-.07,2.13-1.94,0,0a3,3,0,0,0,.42-.58,1,1,0,0,0,.08-.25V418l0-.24a4.35,4.35,0,0,1,.59-1.68c.5-1,1-2,1.53-3,.25-.49.53-1,.77-1.45l.68-1.49a9.45,9.45,0,0,0,1-3v-4.66a28.88,28.88,0,0,1,.51-4.74c.27-1.55.76-3.12,1.15-4.58a26.79,26.79,0,0,0,.7-4.54,23.36,23.36,0,0,0-1.21-9.07,20.4,20.4,0,0,0-1.83-4.2,7.24,7.24,0,0,0-3-3.13h0a8.4,8.4,0,0,0-2.76-1.2,12.63,12.63,0,0,1-3-1.31,8.66,8.66,0,0,1-2.49-2.16,9,9,0,0,0-2.34-1.9h0l0,0a22.51,22.51,0,0,0-3.76-2.14l-4-1.92-4.08-1.72a16.36,16.36,0,0,0-4.12-1.33c-1.41-.06-2.94,0-4.41-.05h-1.11l-1.14-.11-2.2-.32c-.73-.11-1.45-.21-2.16-.27s-1.47.05-2.21.07a11,11,0,0,0-4.27.74h0a15.05,15.05,0,0,0-4.22,2.16,27.36,27.36,0,0,0-3.55,3.18,48.66,48.66,0,0,0-6,7.53,64.31,64.31,0,0,0-4.51,8.48,25.1,25.1,0,0,0-1.5,4.56c-.21.78-.44,1.54-.67,2.31a8,8,0,0,1-.88,2.25v0l-2.18,9.38Z" transform="translate(-677.75 -247.41)"/>
        <path class="cls-1" d="M1734.83,404.67a9.38,9.38,0,0,1,1.37,1.05,7.33,7.33,0,0,1,1,1.4l1.67,3h0l1.17,2.52c.41.83.72,1.7,1.19,2.49a10.56,10.56,0,0,0,1.71,2.17l2,1.94h0l2.48,2.46a19.1,19.1,0,0,0,2.62,2.3,21.11,21.11,0,0,0,6.19,3.13l3.32,1.08a20.84,20.84,0,0,0,3.4.66c1.15.15,2.32.1,3.5.27a18.47,18.47,0,0,1,3.44.8h-.07l4.69,0h1.76a1.33,1.33,0,0,0,.49-.08,6.61,6.61,0,0,0,1.89-1.16,59.33,59.33,0,0,0,6.46-6.7l2.88-3.68c.94-1.24,2-2.42,2.85-3.7.45-.63.9-1.27,1.32-1.92a8.08,8.08,0,0,0,1-1.95,7.12,7.12,0,0,0,.26-2.19l.09-2.39v.06a3.13,3.13,0,0,0-.81-2.39,3.47,3.47,0,0,1-.67-1.52,4.43,4.43,0,0,1-.07-.81,2.14,2.14,0,0,1,.17-.9,1.61,1.61,0,0,1,.66-.72l.65-.41.59-.37a4.16,4.16,0,0,0,.5-.34c.19-.17.2-.5.12-1s-.09-.91-.19-1.37c-.25-.9-.4-1.85-.71-2.71a7.73,7.73,0,0,0-.59-1.23,3.11,3.11,0,0,0-.77-1,1.07,1.07,0,0,0-.45-.18,1.31,1.31,0,0,0-.3,0h-4.9l-.14-.13a2,2,0,0,0-1.16-.55,4.59,4.59,0,0,1-1.69-.54h0a3.72,3.72,0,0,1-.81-.73,5.38,5.38,0,0,1-.55-.84,4,4,0,0,0-1.34-1.11c-.55-.34-1-.66-1.64-1a3.73,3.73,0,0,1-1.4-1.62c-.29-.67-.4-1.27-.61-1.9s-.35-1.26-.48-1.9c-.22-1.33-.41-2.55-.64-3.79a7,7,0,0,0-1.7-3.2,13.85,13.85,0,0,0-3-2.22,8.74,8.74,0,0,0-3.51-1.2,9.23,9.23,0,0,0-3.65.5l-.05,0a50.51,50.51,0,0,0-7.33,2,22.79,22.79,0,0,0-3.39,1.69l-3.14,2.14h0c-.55.59-1.12,1.16-1.66,1.78a14.12,14.12,0,0,1-1.84,1.63c-1.22,1.07-2.53,2.07-3.68,3.21a13.88,13.88,0,0,0-1.54,1.88c-.23.34-.45.68-.65,1s-.3.75-.45,1.12c-.3.76-.54,1.55-.88,2.29a6.08,6.08,0,0,1-1.22,2.12h0l-.33.11-.15.07a.48.48,0,0,0-.11.06h0v0c-.3.58-.63,1.13-.9,1.73l-.8,1.79-.71,1.82c-.23.61-.38,1.24-.57,1.87h0q-.18.53-.33,1.05c-.09.35-.22.69-.28,1.05-.13.72-.27,1.43-.43,2.14h0a.79.79,0,0,0,.3.62A4,4,0,0,0,1734.83,404.67Zm0,0a3.47,3.47,0,0,1-.57-.44.74.74,0,0,1-.3-.62h0c.15-.71.28-1.42.41-2.14a9.68,9.68,0,0,1,.27-1.06c.1-.35.21-.69.32-1h0c.19-.62.34-1.27.57-1.88l.7-1.83.78-1.79c.27-.6.6-1.16.9-1.75v0c0-.11.1-.1.15-.14l.16-.07.33-.12h0a6.13,6.13,0,0,0,1.18-2.09c.33-.74.56-1.52.86-2.28.15-.38.27-.78.45-1.15s.42-.7.65-1a14.89,14.89,0,0,1,1.54-1.92c1.16-1.15,2.44-2.17,3.66-3.26a26.71,26.71,0,0,0,3.43-3.46h0l3.14-2.21a22.1,22.1,0,0,1,3.42-1.76,26.5,26.5,0,0,1,3.65-1.22l3.71-.93,0,0a9.66,9.66,0,0,1,3.93-.6,9.35,9.35,0,0,1,3.76,1.21,14.41,14.41,0,0,1,3.22,2.29,6.24,6.24,0,0,1,1.2,1.64,9,9,0,0,1,.73,1.86c.27,1.29.49,2.61.71,3.82.14.61.3,1.23.49,1.83a18.41,18.41,0,0,0,.57,1.77,2.84,2.84,0,0,0,1.1,1.25c.49.29,1.09.68,1.64,1a4.91,4.91,0,0,1,1.6,1.35,5.44,5.44,0,0,0,.5.77,3,3,0,0,0,.63.55l0,0a3.64,3.64,0,0,0,1.37.42,3,3,0,0,1,1.69.8l-.31-.13h4.71a3.16,3.16,0,0,1,.42,0,2,2,0,0,1,.88.35c1.76,1.57,2,3.62,2.5,5.53.1.49.13,1,.19,1.5a3,3,0,0,1,0,.81,1.66,1.66,0,0,1-.43.92,1.54,1.54,0,0,1-.36.28l-.33.2-.64.4-.57.36c-.24.14-.25.17-.33.32a2.23,2.23,0,0,0,0,1.14,2.55,2.55,0,0,0,.48,1.12,5.55,5.55,0,0,1,.46.62,3.22,3.22,0,0,1,.34.76,5.17,5.17,0,0,1,.19,1.58v0l-.09,2.29a8.34,8.34,0,0,1-.32,2.45,9.35,9.35,0,0,1-1.17,2.17c-.44.66-.89,1.3-1.35,1.94-1.88,2.51-3.89,4.93-5.86,7.37a60.78,60.78,0,0,1-6.65,6.68,7,7,0,0,1-2.11,1.24,1.88,1.88,0,0,1-.66.09h-1.76l-4.69,0h-.08a17.64,17.64,0,0,0-3.35-.83c-1.13-.19-2.31-.15-3.48-.33a21.59,21.59,0,0,1-3.45-.72l-3.32-1.14a21.32,21.32,0,0,1-6.19-3.25,18.73,18.73,0,0,1-2.62-2.33l-2.47-2.48h0l-2-2a11,11,0,0,1-1.7-2.19c-.47-.8-.78-1.68-1.19-2.51l-1.15-2.52h0l-1.65-3a6.67,6.67,0,0,0-1-1.41A8.27,8.27,0,0,0,1734.83,404.67Z" transform="translate(-677.75 -247.41)"/>
      </g>
    </g>
    <g>
      <path class="cls-1" d="M1817.3,337.38q-2.73,2.25-10,2.25t-10.37,3.84h-3.74v-3.42a61.88,61.88,0,0,0,9.3-1.6q2.6-.43,7.7-1.71ZM1807.89,386l-3.74.64-.68-3.53,4.42.64Zm134.8,83.39-2.26.43q-.47,0-7.94-13.15a108.34,108.34,0,0,0-8.45-13.36q-3.57-4.6-5.5-6.95Q1907,421.95,1902.33,418l-10.2-7.27q-12.36-8.57-17.8-11.5t-9-2.94c-1.66.29-3.36.57-5.1.86q-1.59-.64-5.78-4.49t-8.39-3.85q-1.14,0-4.14,2.51t-3,3.9l2,21.38q-.45,4.18-.68,6.63-.9,9.21-.9,12.94a37.83,37.83,0,0,0,.34,5.51,5.91,5.91,0,0,0,2,3.74,4.94,4.94,0,0,1,1.64,3.9v16.57l-2.38,2.25q-.67-.86-2.55-11.17a94.8,94.8,0,0,1-1.87-14.7,5,5,0,0,1,1.19-3.48,3.73,3.73,0,0,0,1.19-2.19,11.14,11.14,0,0,1-1.81-2,7.52,7.52,0,0,1-1.93-4.81,41.45,41.45,0,0,1,1.19-10.69,31.25,31.25,0,0,0,1.19-5.46,13.07,13.07,0,0,0-.22-2.78q-.24-1-1.48-5.34a44.12,44.12,0,0,1-3-3.53,9.09,9.09,0,0,0,1.14-1.93,7.78,7.78,0,0,0,1.13-2.67,3,3,0,0,0-1.13-1.93,2.86,2.86,0,0,1-1.14-1.81,28.29,28.29,0,0,0-2.72-8.08c-1-1.6-2.12-2.4-3.4-2.4a17,17,0,0,0-3.23.54,18.49,18.49,0,0,1-3,.53,5.21,5.21,0,0,1-2.26-.43v-1.92a14.31,14.31,0,0,1,3-.22c.3,0,1,.08,2.21.22s1.83.14,2,0a11,11,0,0,0,5.27-3.26,6.8,6.8,0,0,0,1.53-4.23,14.55,14.55,0,0,0-1.19-5.34,33.39,33.39,0,0,1-1.19-3.21l3.74-4.17,2-16.15q0-5.24-1.36-7a5.24,5.24,0,0,0-4.42-1.76c-2.49.14-4.35.21-5.55.21a12.42,12.42,0,0,1-5.33-1.07c.3-.28.72-.73,1.24-1.33a3.91,3.91,0,0,1,2-1.23,7.57,7.57,0,0,1,2-.32h1a42.29,42.29,0,0,0,5.56.64c1.59,0,3-.95,4.25-2.84s2.59-5.79,4-11.7,3.17-10.48,5.21-13.69q2.84-3.11,5.56-6.31a5.07,5.07,0,0,0-.46-3.47,10.76,10.76,0,0,1-.9-3.58l2,1.6h1.7q2-3.11,4.19-6.42a22.42,22.42,0,0,1,7.37-7l.68,1.72c0,.57-.9,2.17-2.72,4.81q-3.51,4.8-6.8,9.4a56.63,56.63,0,0,0-1.81,9.47,90.55,90.55,0,0,1-1.59,9.35l-4.65,16.26c0,1.14.3,1.81.91,2a13.84,13.84,0,0,0,3.74.32q10.43-1.5,19.44-2.73a154.62,154.62,0,0,1,20.69-1.23h5.56a110.53,110.53,0,0,1,19.5,1.66q9.3,1.65,12.81,6.68c.61-.28,1.25-.57,1.93-.86a5.06,5.06,0,0,1,1.93-.42l2.83.64v2l-3.74,1.28a60.67,60.67,0,0,1-6.24-2q-14.18-4.82-16.44-5.45h-9.07q-4.41,0-8.39-.21-8.16,0-17.46.85-2.49.21-6.57,3.53t-5.22,3.53a18.34,18.34,0,0,1-5.1-.43,32.58,32.58,0,0,0-4.65-.64q-5.1,0-7.71,3.42-3.41,4.59-3.4,16.25a45.34,45.34,0,0,0-1.7,4.39,29.2,29.2,0,0,0-1.59,8.55c0,.43.46.85,1.36,1.28q3.29,1.5,3.29,7.06a27.75,27.75,0,0,0-.23,3l1.82.64a6.72,6.72,0,0,0,2.55-1.07,6.61,6.61,0,0,1,2.78-1.07c1,.72,3,1.07,5.89,1.07a30.14,30.14,0,0,0,3.86-.21q1.7,4.82,25.85,18.6,14,7.92,22,16.9,10.67,11.53,18.37,21.7a226.21,226.21,0,0,1,16.21,24.27ZM1831.47,347a17.85,17.85,0,0,1-2.72.64,5.16,5.16,0,0,1-2.38-.64,8.34,8.34,0,0,0-1.59-1.28v-3.53h3.06l3.63,2.25Zm14.63,54.32-1.37,1.28c-1.66-1.57-2.49-2.57-2.49-3,.45-.79.83-1.39,1.13-1.82a16.79,16.79,0,0,1,2.73-2.78Zm101-59.77q-1.83,2.88-9.3,9a178.4,178.4,0,0,1-25.74,17.32,211.06,211.06,0,0,1-42.29,17.54h-3.63a6.7,6.7,0,0,1-.79-2c0-1.56,2-2.69,6-3.36s7.43-1.23,10.38-1.66q2-1.71,4.42-3.53a56.7,56.7,0,0,0,12-5q6.57-4,7.71-4.6,14.39-6.53,20.29-10.8a64.13,64.13,0,0,0,11.45-10.91c2.34-2.7,4.31-4.06,5.9-4.06C1943.94,339.41,1945.15,340.12,1947.12,341.55Z" transform="translate(-677.75 -247.41)"/>
      <g>
        <path class="cls-1" d="M1817.3,337.38a10.58,10.58,0,0,1-5,2.11,33.83,33.83,0,0,1-5.49.48,18.54,18.54,0,0,0-5.26.9,9.1,9.1,0,0,0-4.26,2.89l-.13.18h-.23l-3.74,0h-.49v-.5c0-1.14,0-2.28,0-3.42v-.47h.48a31.56,31.56,0,0,0,4.21-.55c1.41-.25,2.82-.53,4.24-.83l8.49-1.7h.09C1812.64,336.77,1815,337.13,1817.3,337.38Zm0,0c-2.51-.18-4.87-.25-7.17-.39h.09l-4.22,1c-1.41.34-2.83.7-4.22,1s-2.83.61-4.26.89a31.93,31.93,0,0,1-4.37.62l.48-.49c0,1.14,0,2.28,0,3.42l-.49-.49,3.74,0-.37.17a10,10,0,0,1,4.72-3.12,17.61,17.61,0,0,1,5.52-.76,41.11,41.11,0,0,0,5.44-.21A11.17,11.17,0,0,0,1817.3,337.38Z" transform="translate(-677.75 -247.41)"/>
        <path class="cls-1" d="M1807.89,386c-1.08.36-2.35.74-3.68,1l-.36.08-.1-.41c-.3-1.16-.55-2.33-.77-3.51l-.13-.68.69.1c1.47.22,2.93.5,4.39.84l.27.07,0,.22C1808.11,384.6,1808,385.37,1807.89,386Zm0,0c-.11-.84-.23-1.56-.29-2.25l.25.29c-1.5-.08-3-.23-4.46-.44l.56-.58q.35,1.76.6,3.54l-.47-.32C1805.25,386.14,1806.47,386.1,1807.89,386Z" transform="translate(-677.75 -247.41)"/>
        <path class="cls-1" d="M1942.69,469.42l-2.26.44h0a8.36,8.36,0,0,1-1.2-1.63l-1.06-1.71-2.06-3.48-4-7a99.76,99.76,0,0,0-8.78-13.53c-3.34-4.22-6.68-8.44-10.14-12.57-1.73-2.06-3.48-4.11-5.27-6.11a68,68,0,0,0-5.65-5.74h0l-8.82-6.25c-2.94-2.08-5.93-4.09-8.93-6.09s-6-3.94-9.15-5.72a37,37,0,0,0-4.82-2.36,14.55,14.55,0,0,0-5.16-1.16h0l-5.1.87h-.08l-.06,0a14.29,14.29,0,0,1-2.83-1.9c-.87-.7-1.71-1.44-2.54-2.19a16.15,16.15,0,0,0-5.44-3.62,9.39,9.39,0,0,0-3.18-.6,2.84,2.84,0,0,0-1.42.52,13.52,13.52,0,0,0-1.36.92,25.78,25.78,0,0,0-2.52,2.13,10.16,10.16,0,0,0-1.07,1.22,2.63,2.63,0,0,0-.59,1.36v0l2.06,21.38v.06c-.42,4.17-.88,8.35-1.21,12.54a56.27,56.27,0,0,0,0,12.51,5.87,5.87,0,0,0,1.14,2.73,12.35,12.35,0,0,0,1.08,1.11,4.71,4.71,0,0,1,.93,1.39,7.06,7.06,0,0,1,.47,3.21V466l-.1.1-2.38,2.25-.29.26-.19-.3a3.94,3.94,0,0,1-.45-1c-.1-.33-.19-.67-.28-1-.17-.66-.32-1.33-.47-2-.29-1.34-.55-2.67-.81-4-.51-2.67-1-5.35-1.43-8s-.82-5.39-1-8.12c0-.69-.07-1.37-.06-2.07a6,6,0,0,1,.41-2.11,4.46,4.46,0,0,1,.52-1,10,10,0,0,1,.66-.81,3.08,3.08,0,0,0,.78-1.59l.11.25a11.88,11.88,0,0,1-1.87-2.1l0,0a8.74,8.74,0,0,1-1.82-3.43,7.14,7.14,0,0,1-.19-1.94q0-.94,0-1.89a41.3,41.3,0,0,1,.9-7.5l.93-3.64c.14-.61.28-1.21.39-1.81a6.67,6.67,0,0,0,.1-1.79,9.63,9.63,0,0,0-.19-1.8l-.49-1.8-1-3.6.09.15-3-3.56-.17-.2.17-.24a9.73,9.73,0,0,0,1.08-1.83l0,0v0a17.48,17.48,0,0,0,.81-1.62,3.1,3.1,0,0,0,.26-.78,1.16,1.16,0,0,0-.15-.67,5.1,5.1,0,0,0-1.11-1.32,3,3,0,0,1-1-1.84v.08a45,45,0,0,0-1.42-5.15,9.65,9.65,0,0,0-2.61-4.39,2.82,2.82,0,0,0-2.25-.59,24.69,24.69,0,0,0-2.6.49c-.88.2-1.76.4-2.69.52a5.73,5.73,0,0,1-2.85-.44l-.23-.1v-2.5l.31-.07a10.93,10.93,0,0,1,1.86-.21,11.07,11.07,0,0,1,1.82,0l1.82.18c.29,0,.58.06.87.07h.41c.1,0,.31-.07.17,0l.15-.09a13.16,13.16,0,0,0,4.21-2.22,6.75,6.75,0,0,0,2.24-4,11.12,11.12,0,0,0-.59-4.68c-.24-.77-.55-1.52-.86-2.29l-.45-1.16-.21-.59-.11-.3a2.28,2.28,0,0,1-.1-.43l0-.14.13-.14,3.74-4.17-.11.23,2-16.15v.05a18.07,18.07,0,0,0-.69-5.58,3.54,3.54,0,0,0-1.56-2,5.39,5.39,0,0,0-2.56-.71c-1.85,0-3.85.13-5.77.19a12.92,12.92,0,0,1-5.85-1.1l-.56-.26.45-.48,1.2-1.29a4.4,4.4,0,0,1,1.61-1.18,9.06,9.06,0,0,1,1.86-.47,5.28,5.28,0,0,1,1-.07h1c1.56.25,3.12.49,4.67.6a4.28,4.28,0,0,0,2.13-.24,4.76,4.76,0,0,0,1.72-1.29,12.41,12.41,0,0,0,2.23-4c.56-1.46,1-3,1.46-4.48.86-3,1.49-6.15,2.48-9.2a38.07,38.07,0,0,1,3.87-8.8l0,0,0,0,5.54-6.3-.08.14a3,3,0,0,0,0-1.52,10.86,10.86,0,0,0-.51-1.66,11.12,11.12,0,0,1-.92-3.69l0-1.06.83.66,2,1.61-.3-.11h1.7l-.42.22,2.45-3.74c.84-1.24,1.59-2.5,2.51-3.73a22.62,22.62,0,0,1,6.78-6l.49-.29.2.53.68,1.71,0,.1V282a3.56,3.56,0,0,1-.4,1.22c-.17.33-.35.65-.54,1-.37.63-.76,1.23-1.16,1.83-.8,1.22-1.66,2.35-2.49,3.51l-5,7,.06-.12a57,57,0,0,0-1.71,8.74c-.41,3-.81,6-1.43,8.93s-1.63,5.8-2.44,8.7l-2.48,8.67v-.12a2.75,2.75,0,0,0,.24,1.27.64.64,0,0,0,.33.32,3.14,3.14,0,0,0,.64.16,22.73,22.73,0,0,0,3,.16h-.06l19.9-2.77a156.86,156.86,0,0,1,20.09-1.16c3.35,0,6.7,0,10.06.09s6.71.38,10,.8a53.67,53.67,0,0,1,9.91,2,16.14,16.14,0,0,1,8.37,5.67l-.47-.12,1.89-.84a5.4,5.4,0,0,1,2.13-.48h.08l2.83.64.29.07v2.6l-.25.08-3.74,1.28-.07,0h0a4.11,4.11,0,0,1-.83-.19l-.72-.22-1.42-.47-2.83-1-5.65-1.89-11.32-3.76h.09c-3.51,0-7,0-10.53,0s-7-.26-10.53-.15-7,.26-10.5.53l-2.62.21a12.28,12.28,0,0,0-1.27.15,7.47,7.47,0,0,0-1.19.38,20.09,20.09,0,0,0-4.37,2.76,46.45,46.45,0,0,1-4.25,3.17,5.92,5.92,0,0,1-1.26.62,6.81,6.81,0,0,1-1.4.08,23.49,23.49,0,0,1-2.66-.27c-1.75-.28-3.46-.64-5.18-.82a11,11,0,0,0-5,.77,8,8,0,0,0-3.71,3.34,16.71,16.71,0,0,0-1.82,4.82,47.63,47.63,0,0,0-1,10.4v.06l0,.06-1.07,2.73a24.61,24.61,0,0,0-1,2.77,31.45,31.45,0,0,0-1.15,5.73,14.25,14.25,0,0,0-.08,1.45c-.07.38.29.64.68.9s.88.41,1.31.72a5,5,0,0,1,1.12,1.07,9.58,9.58,0,0,1,1.53,5.79h0v0l-.23,3-.18-.25,1.82.64h-.09a3.92,3.92,0,0,0,1.25-.42c.43-.2.84-.43,1.26-.67a12.5,12.5,0,0,1,1.32-.66,4.25,4.25,0,0,1,1.5-.39h.08l.07.05a5.61,5.61,0,0,0,2.21.78,19.76,19.76,0,0,0,2.44.23,33.44,33.44,0,0,0,4.91-.19l.2,0,.08.2a9.06,9.06,0,0,0,2.13,2.81,35.05,35.05,0,0,0,2.77,2.38c1.91,1.51,3.92,2.91,6,4.27,4.08,2.69,8.27,5.24,12.5,7.7,8.53,4.78,16.85,10.26,23.56,17.47s13.06,14.64,19,22.45a225.93,225.93,0,0,1,16.28,24.47h0Zm0,0v-4.81h0a227.24,227.24,0,0,0-16.38-24.39c-6-7.78-12.4-15.18-19.07-22.35s-15-12.57-23.56-17.31c-4.25-2.45-8.45-5-12.56-7.66-2-1.36-4.07-2.75-6-4.27-1-.75-1.91-1.56-2.81-2.41a9.53,9.53,0,0,1-2.26-3l.27.16a32.18,32.18,0,0,1-5,.2,19.2,19.2,0,0,1-2.5-.23,6.06,6.06,0,0,1-2.44-.86l.16.05a3.69,3.69,0,0,0-1.29.34c-.43.19-.85.41-1.27.64s-.84.48-1.29.69a4.15,4.15,0,0,1-1.48.47h-.09l-1.82-.64-.19-.07,0-.19.22-3v0a9.06,9.06,0,0,0-1.42-5.45,4.79,4.79,0,0,0-1-1c-.38-.27-.82-.42-1.28-.7a2.57,2.57,0,0,1-.64-.51,1.24,1.24,0,0,1-.25-.4,1,1,0,0,1-.06-.46c0-.5,0-1,.07-1.5a31.31,31.31,0,0,1,1.17-5.84,25.81,25.81,0,0,1,1-2.8l1.08-2.77,0,.11a48.42,48.42,0,0,1,1-10.53,17.5,17.5,0,0,1,1.88-5,8.57,8.57,0,0,1,4-3.58,11.34,11.34,0,0,1,5.3-.83c1.78.18,3.51.54,5.23.82a22.52,22.52,0,0,0,2.58.25,6,6,0,0,0,1.22-.06,5.58,5.58,0,0,0,1.09-.55,46.07,46.07,0,0,0,4.19-3.13,19.67,19.67,0,0,1,4.51-2.85,6.46,6.46,0,0,1,1.31-.42,11.16,11.16,0,0,1,1.34-.17l2.63-.22c3.51-.27,7-.46,10.54-.54s7,.06,10.54.13,7,0,10.53,0h.1l11.35,3.76,5.67,1.88,2.82,1,1.41.47.71.22a5.86,5.86,0,0,0,.62.15l-.12,0,3.74-1.28-.25.35v-2l.29.36-2.84-.64h.09a4.67,4.67,0,0,0-1.84.43l-1.86.82-.29.13-.18-.25a15.43,15.43,0,0,0-8-5.38,53.12,53.12,0,0,0-9.77-1.92c-3.31-.41-6.64-.67-10-.78s-6.68-.06-10-.07a156.77,156.77,0,0,0-20,1.18l-19.89,2.8h-.06a23.64,23.64,0,0,1-3.13-.17,4.38,4.38,0,0,1-.85-.21,1.62,1.62,0,0,1-.77-.71,3.67,3.67,0,0,1-.34-1.7v-.13l2.47-8.66c.8-2.88,1.71-5.79,2.42-8.65s1-5.89,1.4-8.87a59.28,59.28,0,0,1,1.74-8.92l0-.06,0-.06,5-7c.83-1.16,1.7-2.31,2.47-3.49.39-.59.78-1.19,1.13-1.79.18-.3.35-.61.5-.91a3,3,0,0,0,.3-.79l0,.17-.68-1.71.7.24a21.8,21.8,0,0,0-6.49,5.79c-.86,1.15-1.64,2.46-2.46,3.69l-2.45,3.74-.14.23h-2.15l-.13-.11-2-1.6.81-.39a10.4,10.4,0,0,0,.84,3.33,10,10,0,0,1,.56,1.83,3.87,3.87,0,0,1-.08,2.07l0,.08-.06.06-5.57,6.32,0-.07a37.37,37.37,0,0,0-3.78,8.57c-1,3-1.6,6.09-2.48,9.17-.44,1.53-.92,3.06-1.5,4.56a13.42,13.42,0,0,1-2.4,4.27,5.82,5.82,0,0,1-2.06,1.52,5.16,5.16,0,0,1-2.55.31c-1.62-.13-3.19-.37-4.76-.62h-.83a5.69,5.69,0,0,0-.83.06,7.73,7.73,0,0,0-1.64.42,3.39,3.39,0,0,0-1.29.93l-1.26,1.35-.12-.74a12,12,0,0,0,5.46,1c1.95-.06,3.82-.19,5.83-.18a6.41,6.41,0,0,1,3,.84,4.34,4.34,0,0,1,1.19,1.07,4.81,4.81,0,0,1,.73,1.4,18.54,18.54,0,0,1,.73,5.88v.06l-2,16.14,0,.13-.09.1-3.74,4.17.1-.28.37,1,.44,1.15c.3.76.62,1.54.87,2.35a11.8,11.8,0,0,1,.62,5.06,7.62,7.62,0,0,1-2.52,4.47,14,14,0,0,1-4.49,2.37l.15-.08a.84.84,0,0,1-.42.18l-.27,0h-.49c-.31,0-.62,0-.92-.08l-1.76-.17a10.33,10.33,0,0,0-1.76,0,9.34,9.34,0,0,0-1.71.18l.31-.39v1.92l-.23-.36a5.08,5.08,0,0,0,2.42.37c.85-.11,1.73-.31,2.6-.5a23.82,23.82,0,0,1,2.7-.5,3.72,3.72,0,0,1,1.48.07,3.81,3.81,0,0,1,1.33.68,10.42,10.42,0,0,1,2.86,4.75,46.23,46.23,0,0,1,1.44,5.24v.09a2.33,2.33,0,0,0,.78,1.31,5.73,5.73,0,0,1,1.24,1.51,1.87,1.87,0,0,1,.22,1.12,3.81,3.81,0,0,1-.31,1c-.25.59-.55,1.14-.85,1.69l0-.06a6.19,6.19,0,0,1-.54,1.06c-.21.33-.42.65-.64.95v-.44l2.91,3.5.07.08,0,.07,1,3.63.49,1.82a11.74,11.74,0,0,1,.21,1.93c0,.33,0,.62,0,1a9.67,9.67,0,0,1-.13,1c-.12.62-.26,1.24-.4,1.85l-.93,3.63a38.76,38.76,0,0,0-.89,7.37c0,.62,0,1.24,0,1.86a6.45,6.45,0,0,0,.17,1.77,7.94,7.94,0,0,0,1.67,3.15v0l0,0a11.35,11.35,0,0,0,1.75,1.95l.12.12v.14a3.6,3.6,0,0,1-.94,2c-.23.29-.46.52-.63.78a4.07,4.07,0,0,0-.45.82,9.08,9.08,0,0,0-.3,3.88c.18,2.69.56,5.38,1,8.06s.91,5.35,1.42,8c.25,1.33.52,2.66.8,4,.15.66.3,1.32.47,2,.08.32.17.65.27,1a3.58,3.58,0,0,0,.33.84l-.48,0,2.38-2.24-.1.23V450.13a6.6,6.6,0,0,0-.41-3,4.55,4.55,0,0,0-.81-1.22,11.17,11.17,0,0,1-1.12-1.15,6.47,6.47,0,0,1-1.26-3,56.92,56.92,0,0,1,0-12.65c.34-4.19.8-8.37,1.23-12.56v.06l-2-21.38v0h0a3.11,3.11,0,0,1,.69-1.67,10.84,10.84,0,0,1,1.14-1.29,27.94,27.94,0,0,1,2.57-2.18c.46-.33.92-.66,1.41-.95a3.38,3.38,0,0,1,1.69-.58,9.86,9.86,0,0,1,3.36.63,16.66,16.66,0,0,1,5.6,3.73c.83.75,1.66,1.48,2.52,2.18a14.28,14.28,0,0,0,2.7,1.83l-.13,0,5.1-.84h0a15.08,15.08,0,0,1,5.32,1.22,36.13,36.13,0,0,1,4.87,2.41c3.13,1.8,6.15,3.78,9.15,5.78s6,4,8.91,6.13l8.79,6.29h0a67.1,67.1,0,0,1,5.66,5.78c1.79,2,3.53,4.07,5.25,6.14,3.44,4.14,6.76,8.39,10.09,12.62a101.2,101.2,0,0,1,8.73,13.58l4,7,2,3.48,1.06,1.72a8.38,8.38,0,0,0,1.18,1.63h0Z" transform="translate(-677.75 -247.41)"/>
        <path class="cls-1" d="M1831.47,347a14.56,14.56,0,0,1-2.68.9h0a5.26,5.26,0,0,1-2.56-.55h0l-.06,0-.77-.64a4.66,4.66,0,0,0-.75-.52l-.25-.11v-.3c0-1.18,0-2.35,0-3.53v-.5h.5c1,0,2,0,3.06,0h.14l.1.06c1.19.78,2.36,1.59,3.52,2.42l.12.09v.12C1831.63,345.34,1831.56,346.21,1831.47,347Zm0,0-.24-2.56.11.2c-1.26-.66-2.51-1.35-3.73-2.07l.23.07c-1,0-2,0-3.06.05l.5-.5c0,1.18,0,2.35,0,3.53l-.26-.42a5.28,5.28,0,0,1,.91.69c.26.23.51.48.75.73l-.09-.07a5.12,5.12,0,0,0,2.2.73h0A24.11,24.11,0,0,0,1831.47,347Z" transform="translate(-677.75 -247.41)"/>
        <path class="cls-1" d="M1846.1,401.32c-.37.46-.8.94-1.23,1.43l-.11.13-.17-.13c-.52-.4-1-.84-1.51-1.3a8.24,8.24,0,0,1-.7-.74,2.88,2.88,0,0,1-.33-.43,1.32,1.32,0,0,1-.25-.67v-.11l.07-.11.79-1.34a6.62,6.62,0,0,1,.91-1.26,13.83,13.83,0,0,1,2.25-2.14l.77-.57,0,.93c0,1.08-.08,2.16-.15,3.21S1846.22,400.32,1846.1,401.32Zm0,0c-.13-1.11-.24-2.18-.31-3.22s-.13-2.07-.15-3.09l.74.36a18.39,18.39,0,0,0-2.07,2.07,6.51,6.51,0,0,0-.87,1.16l-.82,1.23.06-.22a.93.93,0,0,0,.1.23l.23.38c.18.25.38.5.59.75.4.5.85,1,1.27,1.48h-.28C1845.07,402.09,1845.56,401.71,1846.1,401.32Z" transform="translate(-677.75 -247.41)"/>
        <path class="cls-1" d="M1947.12,341.55a25.22,25.22,0,0,1-3.71,4.22c-1.35,1.29-2.76,2.53-4.18,3.75q-4.29,3.64-8.83,7a181.08,181.08,0,0,1-19,12.11,207.9,207.9,0,0,1-41.52,17.24l-.07,0h-4l-.14-.24a7.19,7.19,0,0,1-.86-2.18v-.11a2.2,2.2,0,0,1,.43-1.32,3.75,3.75,0,0,1,.94-.89,8.43,8.43,0,0,1,2.15-1,28.11,28.11,0,0,1,4.43-.91l8.81-1.39-.23.1,4.44-3.53.06-.05.08,0a68.65,68.65,0,0,0,10.18-4c1.59-.83,3.15-1.84,4.74-2.76l4.75-2.8h0c3.83-1.71,7.64-3.48,11.37-5.4a64.55,64.55,0,0,0,10.69-6.57,65.93,65.93,0,0,0,9.09-8.67,18.08,18.08,0,0,1,4.66-4.23,4.71,4.71,0,0,1,1.5-.53,1.55,1.55,0,0,1,.8,0,4.79,4.79,0,0,1,.72.35A30.67,30.67,0,0,1,1947.12,341.55Zm0,0a30.78,30.78,0,0,0-2.65-1.72,2.65,2.65,0,0,0-2.91.22,18,18,0,0,0-4.54,4.29,65.53,65.53,0,0,1-9,8.9,66.64,66.64,0,0,1-10.7,6.75c-3.73,2-7.53,3.79-11.35,5.55h0l-4.71,2.84c-1.58.92-3.11,1.92-4.77,2.79a70.49,70.49,0,0,1-10.3,4.08l.13-.08-4.39,3.53-.11.08-.13,0-8.78,1.42a29.1,29.1,0,0,0-4.29.9,7.8,7.8,0,0,0-1.9.85,1.79,1.79,0,0,0-.92,1.39v-.1a6.08,6.08,0,0,0,.73,1.88l-.43-.24h3.63l-.14,0A215.36,215.36,0,0,0,1911.1,368a188.81,188.81,0,0,0,19-11.84c3-2.16,6-4.42,8.94-6.79,1.45-1.18,2.88-2.39,4.25-3.66A24.72,24.72,0,0,0,1947.12,341.55Z" transform="translate(-677.75 -247.41)"/>
      </g>
    </g>
  </g>
</svg>
